<?xml version="1.0" encoding="UTF-8" standalone="no"?>
<svg
   xmlns:ooo="http://xml.openoffice.org/svg/export"
   xmlns:dc="http://purl.org/dc/elements/1.1/"
   xmlns:cc="http://creativecommons.org/ns#"
   xmlns:rdf="http://www.w3.org/1999/02/22-rdf-syntax-ns#"
   xmlns:svg="http://www.w3.org/2000/svg"
   xmlns="http://www.w3.org/2000/svg"
   style="fill-rule:evenodd;stroke-width:28.22200012;stroke-linejoin:round"
   id="svg2"
   xml:space="preserve"
   clip-path="url(#presentation_clip_path)"
   viewBox="0 0 14401 12401"
   version="1.2"><metadata
     id="metadata74"><rdf:RDF><cc:Work
         rdf:about=""><dc:format>image/svg+xml</dc:format><dc:type
           rdf:resource="http://purl.org/dc/dcmitype/StillImage" /><dc:title></dc:title></cc:Work></rdf:RDF></metadata><defs
     id="defs4"
     class="ClipPathGroup"><clipPath
       clipPathUnits="userSpaceOnUse"
       id="presentation_clip_path"><rect
         id="rect7"
         height="29700"
         width="21000"
         y="0"
         x="0" /></clipPath></defs><defs
     id="defs9"
     class="TextShapeIndex"><g
       id="g11"
       ooo:id-list="id3 id4"
       ooo:slide="id1" /></defs><defs
     id="defs13"
     class="EmbeddedBulletChars"><g
       transform="scale(4.8828125e-4,-4.8828125e-4)"
       id="bullet-char-template(57356)"><path
         id="path16"
         d="M 580,1141 1163,571 580,0 -4,571 580,1141 z" /></g><g
       transform="scale(4.8828125e-4,-4.8828125e-4)"
       id="bullet-char-template(57354)"><path
         id="path19"
         d="m 8,1128 1129,0 L 1137,0 8,0 8,1128 z" /></g><g
       transform="scale(4.8828125e-4,-4.8828125e-4)"
       id="bullet-char-template(10146)"><path
         id="path22"
         d="M 174,0 602,739 174,1481 1456,739 174,0 z m 1184,739 -1049,607 350,-607 699,0 z" /></g><g
       transform="scale(4.8828125e-4,-4.8828125e-4)"
       id="bullet-char-template(10132)"><path
         id="path25"
         d="M 2015,739 1276,0 717,0 l 543,543 -1086,0 0,393 1086,0 -543,545 557,0 741,-742 z" /></g><g
       transform="scale(4.8828125e-4,-4.8828125e-4)"
       id="bullet-char-template(10007)"><path
         id="path28"
         d="m 0,-2 c -7,16 -16,29 -25,39 l 381,530 c -94,256 -141,385 -141,387 0,25 13,38 40,38 9,0 21,-2 34,-5 21,4 42,12 65,25 l 27,-13 111,-251 280,301 64,-25 24,25 c 21,-10 41,-24 62,-43 C 886,937 835,863 770,784 769,783 710,716 594,584 L 774,223 c 0,-27 -21,-55 -63,-84 l 16,-20 C 717,90 699,76 672,76 641,76 570,178 457,381 L 164,-76 c -22,-34 -53,-51 -92,-51 -42,0 -63,17 -64,51 -7,9 -10,24 -10,44 0,9 1,19 2,30 z" /></g><g
       transform="scale(4.8828125e-4,-4.8828125e-4)"
       id="bullet-char-template(10004)"><path
         id="path31"
         d="M 285,-33 C 182,-33 111,30 74,156 52,228 41,333 41,471 c 0,78 14,145 41,201 34,71 87,106 158,106 53,0 88,-31 106,-94 l 23,-176 c 8,-64 28,-97 59,-98 l 735,706 c 11,11 33,17 66,17 42,0 63,-15 63,-46 l 0,-122 c 0,-36 -10,-64 -30,-84 L 442,47 C 390,-6 338,-33 285,-33 z" /></g><g
       transform="scale(4.8828125e-4,-4.8828125e-4)"
       id="bullet-char-template(9679)"><path
         id="path34"
         d="M 813,0 C 632,0 489,54 383,161 276,268 223,411 223,592 c 0,181 53,324 160,431 106,107 249,161 430,161 179,0 323,-54 432,-161 108,-107 162,-251 162,-431 0,-180 -54,-324 -162,-431 C 1136,54 992,0 813,0 z" /></g><g
       transform="scale(4.8828125e-4,-4.8828125e-4)"
       id="bullet-char-template(8226)"><path
         id="path37"
         d="m 346,457 c -73,0 -137,26 -191,78 -54,51 -81,114 -81,188 0,73 27,136 81,188 54,52 118,78 191,78 73,0 134,-26 185,-79 51,-51 77,-114 77,-187 0,-75 -25,-137 -76,-188 -50,-52 -112,-78 -186,-78 z" /></g><g
       transform="scale(4.8828125e-4,-4.8828125e-4)"
       id="bullet-char-template(8211)"><path
         id="path40"
         d="m -4,459 1139,0 0,147 -1139,0 0,-147 z" /></g></defs><defs
     id="defs42"
     class="TextEmbeddedBitmaps" /><g
     transform="translate(199.99956,200.00005)"
     id="g44"><g
       class="Master_Slide"
       id="id2"><g
         class="Background"
         id="bg-id2" /><g
         class="BackgroundObjects"
         id="bo-id2" /></g></g><g
     transform="translate(199.99956,200.00005)"
     id="g51"
     style="fill:#ffffff"><g
       id="id1"
       class="Slide"
       clip-path="url(#presentation_clip_path)"
       style="fill:#ffffff"><g
         class="Page"
         id="g54"
         style="fill:#ffffff"><g
           class="com.sun.star.drawing.CustomShape"
           id="g56"
           style="fill:#ffffff"><g
             id="id3"
             style="fill:#ffffff"><path
               d="m 1439,1000 c -220,0 -439,219 -439,438 l 0,9124 c 0,219 219,439 439,439 l 11123,0 c 219,0 439,-220 439,-439 l 0,-9124 c 0,-219 -220,-438 -439,-438 l -11123,0 z m -439,0 0,0 z m 12001,10001 0,0 z"
               id="path59"
               style="fill:#ffffff;stroke:none" /><path
               d="m 1439,1000 c -220,0 -439,219 -439,438 l 0,9124 c 0,219 219,439 439,439 l 11123,0 c 219,0 439,-220 439,-439 l 0,-9124 c 0,-219 -220,-438 -439,-438 l -11123,0 z"
               id="path61"
               style="fill:#ffffff;stroke:#b2b2b2;stroke-width:400;stroke-linecap:round;stroke-linejoin:round" /></g></g><g
           class="com.sun.star.drawing.CustomShape"
           id="g63"
           style="fill:#ffffff"><g
             id="id4"
             style="fill:#ffffff"><path
               d="m 3852,7681 189,-3 174,-10 160,-16 145,-23 131,-31 59,-17 56,-19 53,-20 49,-22 45,-25 41,-25 74,-55 34,-29 30,-30 29,-30 26,-32 24,-33 21,-33 19,-34 16,-35 13,-36 11,-37 8,-38 7,-38 4,-41 1,-40 -2,-59 -7,-57 -11,-55 -15,-53 -19,-51 -24,-48 -28,-47 -32,-44 -36,-43 -39,-41 -42,-40 -44,-38 -47,-37 -51,-35 -53,-35 -56,-33 -119,-64 -128,-60 -137,-56 -146,-54 -618,-198 -153,-49 -152,-51 -303,-112 -74,-30 -73,-31 -70,-33 -67,-35 -67,-37 -63,-38 -63,-39 -59,-42 -57,-42 -55,-46 -51,-48 -50,-49 -47,-52 -44,-55 -41,-56 -38,-58 -35,-61 -29,-64 -26,-68 -21,-71 -16,-75 -11,-78 -8,-81 -2,-84 6,-151 22,-143 33,-135 48,-130 61,-122 35,-59 39,-56 42,-56 47,-53 101,-102 56,-49 59,-45 127,-85 139,-75 151,-67 164,-57 176,-48 188,-41 201,-30 0,-992 847,0 0,975 221,5 213,15 206,25 99,17 99,18 183,41 164,38 143,38 122,36 -193,674 -130,-40 -146,-39 -160,-40 -177,-41 -95,-20 -100,-16 -107,-14 -112,-12 -241,-15 -265,-5 -148,3 -140,9 -131,16 -122,22 -114,27 -105,35 -96,40 -45,23 -43,24 -40,25 -37,27 -36,28 -31,30 -30,30 -27,32 -26,33 -21,34 -20,36 -17,38 -14,38 -11,39 -10,41 -6,42 -4,43 -1,45 1,48 5,48 7,44 11,43 14,41 17,39 20,38 22,36 25,34 29,33 30,32 34,31 37,31 39,29 42,29 45,27 46,27 50,26 104,50 112,46 122,45 555,181 757,268 173,73 82,39 80,40 77,43 74,44 72,46 69,48 66,50 63,52 59,54 56,56 53,59 48,62 47,63 42,67 38,68 34,72 27,76 23,79 18,82 13,87 9,89 2,94 -8,149 -20,142 -35,135 -47,128 -30,61 -33,59 -35,57 -39,55 -44,54 -46,52 -50,49 -53,48 -57,46 -60,44 -64,42 -68,38 -147,72 -162,64 -178,54 -192,46 -207,36 -223,29 0,1114 -847,0 0,-1097 -341,-7 -157,-10 -150,-13 -142,-16 -133,-22 -125,-24 -116,-28 -211,-59 -182,-57 -154,-55 -66,-28 -60,-27 254,-647 162,59 176,58 191,54 207,54 110,24 117,21 123,18 130,14 277,20 305,6 z m 3042,1736 5105,0 0,683 -5105,0 0,-683 z"
               id="path66"
               style="fill:#ffffff;stroke:none" /></g></g></g></g></g><path
     id="path3401"
     d="m 3816.3799,8976.5336 0,-546.638 -249.0952,-8.3077 c -485.0009,-16.1754 -743.7884,-57.2667 -1176.0641,-186.7399 -137.5286,-41.192 -384.5984,-129.4155 -400.9503,-143.171 -4.7978,-4.0359 224.9897,-590.004 236.2812,-602.5275 4.8251,-5.3515 64.7181,10.5215 133.0958,35.2731 292.4796,105.8734 700.6938,204.166 1002.6857,241.4335 260.5458,32.153 987.9433,32.6802 1198.3629,0.869 246.7866,-37.3095 438.4873,-99.2237 566.0401,-182.8158 225.037,-147.4786 349.342,-389.4701 322.262,-627.3634 -20.979,-184.3027 -92.891,-322.0741 -240.499,-460.7582 -117.667,-110.5533 -235.0334,-186.5875 -436.0774,-282.507 -207.2587,-98.8846 -274.6791,-123.3806 -813.0443,-295.4061 -501.8052,-160.3436 -804.4172,-270.1328 -983.3507,-356.7649 -381.7565,-184.8304 -666.9309,-456.4829 -777.456,-740.5919 -49.7633,-127.9184 -71.2798,-255.492 -71.8141,-425.7933 -2.2209,-707.795 447.0583,-1202.9087 1279.72,-1410.2743 136.9676,-34.1104 332.2936,-70.1834 380.0245,-70.1834 l 29.8789,0 0,-498.1904 0,-498.1903 403.5973,0 403.5972,0 0,485.5779 c 0,453.9552 1.4375,485.5937 22.0718,485.8188 116.0765,1.2664 480.6578,28.2287 595.9368,44.0719 279.324,38.3887 838.614,173.5756 828.404,200.2349 -2.95,7.7038 -44.402,151.6739 -92.115,319.9336 -69.812,246.1966 -90.444,304.4819 -105.669,298.5264 -49.555,-19.3844 -342.476,-95.3296 -523.415,-135.7051 -256.352,-57.2036 -475.173,-82.4466 -800.8881,-92.3903 -818.63,-24.9919 -1300.4805,163.8785 -1438.7561,563.9477 -40.3534,116.7533 -40.6658,301.148 -0.7095,418.6993 94.0051,276.5627 342.8179,437.0071 1031.3658,665.0661 631.9491,209.3125 1121.8019,387.7566 1303.4249,474.8134 497.419,238.4263 830.201,577.2069 932.468,949.2774 82.428,299.8905 55.93,659.7951 -68.528,930.773 -208.724,454.4465 -684.569,737.8246 -1425.0361,848.6461 -97.1156,14.5348 -195.0194,29.3109 -217.5641,32.8359 l -40.9904,6.4093 0,554.3746 0,554.3748 -403.5972,0 -403.5973,0 0,-546.6382 z"
     style="fill:#b2b2b2;fill-opacity:1" /><path
     id="path3403"
     d="m 2574.0572,3507.0503 c 4.2872,-6.9369 13.4705,-12.6125 20.4073,-12.6125 6.9368,0 9.1047,5.6756 4.8175,12.6125 -4.2872,6.9368 -13.4705,12.6124 -20.4073,12.6124 -6.9368,0 -9.1047,-5.6756 -4.8175,-12.6124 z"
     style="fill:#b2b2b2;fill-opacity:1" /><path
     id="path3405"
     d="m 7196.507,9907.8508 0,-321.617 2535.0952,0 2535.0958,0 0,321.617 0,321.6172 -2535.0958,0 -2535.0952,0 0,-321.6172 z"
     style="fill:#b2b2b2;fill-opacity:1" /><path
     id="path3423"
     d="m 3822.1679,9106.9621 c 0,-301.752 1.6462,-425.196 3.6582,-274.32 2.012,150.876 2.012,397.764 0,548.64 -2.012,150.876 -3.6582,27.432 -3.6582,-274.32 z"
     style="fill:#ffffff;fill-opacity:1" /><path
     id="path3441"
     d=""
     style="fill:#ffffff;fill-opacity:1" /></svg>