<?xml version="1.0" encoding="UTF-8" standalone="no"?>
<svg
   xmlns:dc="http://purl.org/dc/elements/1.1/"
   xmlns:cc="http://creativecommons.org/ns#"
   xmlns:rdf="http://www.w3.org/1999/02/22-rdf-syntax-ns#"
   xmlns:svg="http://www.w3.org/2000/svg"
   xmlns="http://www.w3.org/2000/svg"
   height="1097.3158"
   width="2538.1462"
   xml:space="preserve"
   enable-background="new 0 0 2699.9114 1246.1306"
   viewBox="0 0 2538.1463 1097.3158"
   y="0px"
   x="0px"
   id="Layer_1"
   version="1.1"><metadata
     id="metadata35"><rdf:RDF><cc:Work
         rdf:about=""><dc:format>image/svg+xml</dc:format><dc:type
           rdf:resource="http://purl.org/dc/dcmitype/StillImage" /><dc:title></dc:title></cc:Work></rdf:RDF></metadata><defs
     id="defs33"><linearGradient
       id="linearGradient2934"
       x1="248.42"
       gradientUnits="userSpaceOnUse"
       x2="332.17001"
       gradientTransform="matrix(3.2661,-0.060204,0.024804,1.3456,-513.71,-747.58)"
       y1="659.03003"
       y2="641.85999"><stop
         id="stop6741"
         offset="0" /><stop
         id="stop6743"
         stop-opacity="0"
         offset="1" /></linearGradient><filter
       style="color-interpolation-filters:sRGB"
       id="filter3147"
       height="1"
       width="1"
       y="0"
       x="0"><feColorMatrix
         id="feColorMatrix3149"
         values="1"
         type="saturate"
         result="fbSourceGraphic" /><feColorMatrix
         id="feColorMatrix3151"
         values="-1 0 0 0 1 0 -1 0 0 1 0 0 -1 0 1 0 0 0 1 0 "
         in="fbSourceGraphic" /></filter></defs><g
     transform="translate(-84.27399,-74.695105)"
     id="g5144"><g
       id="g5124"><path
         id="path4237"
         d="m 1270.386,1171.2769 c -87.0668,-6.3621 -155.1556,-15.4831 -227.2769,-30.4452 C 766.73665,1083.4958 473.5876,943.34094 221.5986,748.06654 165.98219,704.9676 81.700117,632.21719 84.334273,629.58303 c 0.512657,-0.51266 8.784839,5.65659 18.382627,13.70944 126.46439,106.10767 296.53328,215.85377 460.14632,296.93418 244.12717,120.98015 474.08008,185.15635 712.46358,198.83715 44.0842,2.53 143.9751,1.4005 185.7741,-2.1005 281.538,-23.5816 557.1903,-117.6215 841.9126,-287.22191 106.4517,-63.41015 220.8204,-143.98548 300.0445,-211.38836 10.1305,-8.61882 18.8318,-15.25781 19.3362,-14.75332 1.3769,1.37678 -52.3747,49.92643 -89.7153,81.0329 -161.3891,134.44501 -359.8658,254.9538 -550.8175,334.43879 -167.8999,69.8895 -330.993,111.6093 -502.9736,128.6625 -30.6078,3.0349 -180.5788,5.5834 -208.5018,3.543 z"
         style="fill:#d1cecc;fill-opacity:1;fill-rule:nonzero;stroke:none" /><path
         id="path4219"
         d="m 1268.9024,897.5966 c -104.6111,-33.86042 -180.0933,-112.95534 -203.8081,-213.56287 -39.5186,-167.65254 74.5858,-333.96824 245.7322,-358.17324 171.4979,-24.25471 332.9379,115.86252 332.5152,288.59696 -0.3237,132.24605 -87.2494,245.99939 -217.5397,284.67832 -40.7801,12.10628 -117.0539,11.35802 -156.8996,-1.53917 z m 147.8996,-14.77628 c 157.9124,-41.13099 247.6047,-209.24717 191.9253,-359.73823 -56.5283,-152.78554 -230.8743,-224.69193 -376.0994,-155.1166 -172.2854,82.53952 -211.8746,307.58892 -77.7104,441.75315 68.4034,68.40338 170.5037,96.90332 261.8845,73.10168 z"
         style="fill:#d1cecc;fill-opacity:1;fill-rule:nonzero;stroke:none" /><path
         id="path4221"
         d="M 1268.9024,932.84151 C 1154.8778,902.75885 1058.449,803.6803 1031.355,688.76633 1000.9109,559.64337 1058.5397,416.894 1170.5814,343.89598 c 57.4037,-37.40003 106.6398,-52.07402 176.5793,-52.62652 65.944,-0.52094 112.0825,11.21723 167.6964,42.66391 118.3097,66.89774 185.1858,221.28912 153.6993,354.83296 -27.3979,116.20271 -124.3114,214.85051 -240.1194,244.41639 -41.4059,10.57096 -118.8006,10.40545 -159.5346,-0.34121 z m 162.4894,-22.52598 c 53.1835,-15.78839 95.5879,-41.06174 133.8562,-79.77921 64.979,-65.74166 92.7892,-139.41716 87.8086,-232.62547 -5.9855,-112.01786 -67.4816,-204.85431 -168.7677,-254.77721 -196.1765,-96.69342 -425.8,37.04746 -437.4342,254.77721 -7.7314,144.69045 76.4145,265.5364 216.4579,310.86551 40.4451,13.09121 126.5112,13.87939 168.0792,1.53917 z"
         style="fill:#d1cecc;fill-opacity:1;fill-rule:nonzero;stroke:none" /><path
         id="path4223"
         d="m 1277.2873,972.91954 c -111.1159,-25.70092 -197.8281,-91.28383 -248.236,-187.74775 -12.0493,-23.05825 -26.2574,-58.27449 -31.57374,-78.2583 -12.73992,-47.88896 -13.06483,-131.27281 -0.697,-178.87612 27.50044,-105.84827 108.61214,-201.65304 207.83824,-245.48758 86.189,-38.07517 204.4848,-38.07517 290.6737,0 99.2262,43.83454 180.3378,139.63931 207.8383,245.48758 12.3678,47.60331 12.043,130.98716 -0.697,178.87612 -31.8187,119.60551 -128.8596,220.92173 -246.2704,257.12033 -49.9852,15.41079 -132.8655,19.5279 -178.8761,8.88572 z m 185.7113,-36.60615 c 81.4915,-28.85848 150.7273,-91.44746 188.8349,-170.70618 27.835,-57.89312 36.3098,-92.97535 36.3098,-150.30769 0,-144.81929 -94.0256,-274.65168 -231.9799,-320.32241 -64.0816,-21.21464 -148.3339,-21.21464 -212.4154,0 -137.9543,45.67073 -231.98,175.50312 -231.98,320.32241 0,54.98034 8.3825,91.4833 33.2327,144.71781 42.8115,91.71152 120.8265,157.58204 218.3119,184.32765 45.8111,12.56851 153.7774,8.22601 199.686,-8.03159 z"
         style="fill:#d1cecc;fill-opacity:1;fill-rule:nonzero;stroke:none" /><path
         id="path4225"
         d="M 1252.7313,1008.9785 C 1129.6202,978.75527 1018.4355,881.08376 973.34534,763.54857 885.76766,535.26223 1014.2101,286.14869 1252.1328,222.84175 c 48.991,-13.03562 146.6548,-13.03562 195.6458,0 236.9262,63.0418 366.5711,312.98999 279.4664,538.79568 -36.0155,93.36474 -107.7889,171.84675 -197.0176,215.43293 -28.4375,13.89102 -69.8092,29.22094 -91.9371,34.06644 -52.8316,11.5687 -133.4634,10.6309 -185.559,-2.1583 z m 218.1222,-37.68438 c 118.5049,-40.84686 210.4481,-138.79339 242.929,-258.79075 13.2441,-48.92887 13.5949,-141.49144 0.7204,-190.05588 -14.9661,-56.45393 -46.5901,-113.72694 -86.741,-157.09372 -78.0757,-84.32894 -165.9676,-123.35619 -277.8062,-123.35619 -27.6699,0 -67.4161,3.98173 -88.3249,8.84829 -129.5836,30.16086 -241.3495,140.05712 -276.22228,271.60162 -12.87456,48.56444 -12.52374,141.12701 0.72034,190.05588 36.66184,135.4432 145.86124,239.29772 285.56854,271.5909 55.1468,12.7471 141.0579,7.22548 199.1561,-12.80015 z"
         style="fill:#d1cecc;fill-opacity:1;fill-rule:nonzero;stroke:none" /><path
         id="path4227"
         d="m 1286.3,871.36465 c -70.6013,-18.98707 -139.2846,-73.67915 -170.9148,-136.09847 -44.2419,-87.3071 -35.6499,-195.18558 21.7563,-273.16643 29.5098,-40.08614 58.0031,-63.00211 107.4608,-86.42607 36.5487,-17.31009 41.3,-18.12761 105.3534,-18.12761 65.6748,0 67.9559,0.42426 109.0026,20.27319 50.6621,24.49859 81.4755,50.42173 108.717,91.46278 69.9079,105.32073 58.5003,236.25843 -28.533,327.50374 -65.7917,68.97572 -164.9366,98.21968 -252.8423,74.57887 z m 137.8059,-18.27446 c 126.1838,-39.27282 199.375,-171.66027 165.9239,-300.12141 -46.7474,-179.52262 -270.1522,-245.20694 -406.924,-119.64172 -166.5343,152.889 -60.5275,429.19886 164.9544,429.95871 26.3489,0.0888 55.6044,-3.83354 76.0457,-10.19558 z"
         style="fill:#d1cecc;fill-opacity:1;fill-rule:nonzero;stroke:none" /><path
         id="path4229"
         d="m 1278.2934,841.25379 c -109.9178,-35.12202 -182.1033,-152.89091 -161.528,-263.52893 28.9883,-155.87653 193.8178,-241.2859 336.1216,-174.16744 90.2911,42.58634 146.8444,150.41973 130.0995,248.06824 -24.7693,144.44364 -167.7041,233.40022 -304.6931,189.62813 z m 127.7841,-8.85871 c 88.1894,-22.96438 149.3728,-90.49044 164.8765,-181.96859 16.3377,-96.39927 -35.343,-192.77674 -127.691,-238.12606 -28.9808,-14.23164 -37.3027,-15.62521 -93.3073,-15.62521 -56.0047,0 -64.3265,1.39357 -93.3074,15.62521 -92.3479,45.34932 -144.0286,141.72679 -127.6909,238.12606 15.2901,90.21802 76.394,158.56032 162.4401,181.683 40.248,10.81562 73.9199,10.89947 114.68,0.28559 z"
         style="fill:#d1cecc;fill-opacity:1;fill-rule:nonzero;stroke:none" /><path
         id="path4235"
         d="m 93.48709,594.67036 c 0,-2.74384 73.67828,-66.53057 116.60291,-100.94857 94.18778,-75.52203 154.62343,-115.68098 265.0218,-176.10465 226.39031,-123.90882 459.31844,-203.18655 681.6357,-231.996573 75.6854,-9.808044 95.4943,-10.925462 193.6795,-10.925462 96.0318,0 115.89,1.058731 186.7622,9.95712 198.1517,24.879005 404.9231,90.135775 609.6949,192.418805 143.8693,71.86229 231.9329,127.61181 344.868,218.3215 47.4621,38.1217 110.8146,93.60522 108.978,95.44186 -0.4385,0.4386 -12.3956,-7.67467 -26.5712,-18.02948 -56.6627,-41.39014 -134.2435,-92.0097 -203.8523,-133.00867 -21.25,-12.5161 -53.7553,-31.92026 -72.2339,-43.12039 C 2194.5032,333.90098 2075.0024,274.34469 1965.3067,230.8333 1704.5897,127.41849 1452.6894,88.043428 1207.1437,112.32326 960.30375,136.73107 697.5549,225.88344 447.24847,370.16059 c -36.27995,20.91184 -101.99962,60.09202 -155.14116,92.49073 -59.9408,36.54401 -117.74366,75.05356 -171.55292,114.29242 -23.860992,17.39994 -27.0673,19.49978 -27.0673,17.72662 z"
         style="fill:#d1cecc;fill-opacity:1;fill-rule:nonzero;stroke:none" /><path
         id="path4241"
         d="m 1313.9266,814.6887 c -39.7557,-6.27721 -89.3355,-34.30011 -115.2589,-65.14518 -42.6494,-50.74668 -59.1798,-119.17753 -43.9199,-181.81519 10.8596,-44.57604 44.3798,-92.33267 83.4131,-118.83964 14.2779,-9.69595 40.7208,-22.37575 53.0407,-25.43387 13.0782,-3.24634 80.9364,-4.79359 101.0442,-2.30393 34.6709,4.29284 70.0928,23.49047 99.6433,54.00385 18.126,18.7166 28.4384,33.22394 39.8152,56.01166 13.759,27.55901 16.6822,38.5808 17.8215,67.1949 3.7556,94.31648 -36.2944,162.962 -117.1961,200.87381 -25.3659,11.88686 -42.5272,15.5678 -76.9612,16.50738 -16.3047,0.44489 -34.9535,-0.0292 -41.4419,-1.05379 z"
         style="fill:#d1cecc;fill-opacity:1;fill-rule:nonzero;stroke:none" /><rect
         id="rect2866"
         style="fill:#ffffff;stroke:#ffffff;stroke-width:1.495"
         transform="scale(-1,1)"
         height="9.3871002"
         width="75.223999"
         y="665.80322"
         x="-1468.2094" /><g
         id="g2871"
         transform="matrix(-0.39486,0,0,0.39486,1558.7492,384.2342)"><g
           id="g2857"
           style="stroke:#ffffff"
           transform="translate(-6.8294e-8,-36.77)"><g
             id="g2835"
             style="stroke:#ffffff"
             transform="matrix(1.053,0.44482,-0.44482,1.053,71.05,-297.32)"><rect
               id="rect2819"
               style="fill:#ffffff;stroke:#ffffff;stroke-width:2.95420003"
               height="195.02"
               width="447.45999"
               y="398.01001"
               x="405.76999" /><rect
               id="rect2821"
               style="fill:#ffffff;stroke:#ffffff;stroke-width:2.6552999"
               height="75.992996"
               width="27.379999"
               y="458.07001"
               x="852.52002" /></g><path
             id="rect2846"
             style="fill:#ffffff;stroke:#ffffff;stroke-width:3.22029996"
             d="m 867.82,562.68 c 1.5237,-3.3933 3.0473,-6.7865 4.5711,-10.18 l -81.318,-47.973 c -3.6856,8.7422 -7.3713,17.484 -11.057,26.227 l 87.804,31.926 z" /></g><rect
           id="rect2850"
           style="fill:#ffffff;stroke:#ffffff;stroke-width:3.79169989"
           ry="38.199001"
           height="289.64001"
           width="56.294998"
           y="518.63"
           x="423.35001" /></g><rect
         x="-1487.5092"
         y="639.58319"
         width="18.268"
         height="64.336998"
         transform="scale(-1,1)"
         style="fill:#ffffff;stroke:#ffffff;stroke-width:0.98979998"
         id="rect2869" /></g></g></svg>