<?xml version="1.0" encoding="UTF-8" standalone="no"?>
<svg
   xmlns:dc="http://purl.org/dc/elements/1.1/"
   xmlns:cc="http://creativecommons.org/ns#"
   xmlns:rdf="http://www.w3.org/1999/02/22-rdf-syntax-ns#"
   xmlns:svg="http://www.w3.org/2000/svg"
   xmlns="http://www.w3.org/2000/svg"
   xmlns:xlink="http://www.w3.org/1999/xlink"
   version="1.1"
   id="svg2"
   viewBox="-142.5 -142.5 285 285"
   height="285"
   width="285">
  <metadata
     id="metadata19">
    <rdf:RDF>
      <cc:Work
         rdf:about="">
        <dc:format>image/svg+xml</dc:format>
        <dc:type
           rdf:resource="http://purl.org/dc/dcmitype/StillImage" />
        <dc:title></dc:title>
      </cc:Work>
    </rdf:RDF>
  </metadata>
  <defs
     id="defs17" />
  <g
     fill="#FFFFFF"
     id="U">
    <circle
       id="circle7"
       r="18.9215"
       cx="-96.3772" />
    <path
       id="path9"
       d="M-45.6059,68.395C-62.1655,57.3316-74.4844,40.4175-79.6011,20.6065-73.623,15.7354-69.8047,8.3164-69.8047,0-69.8047-8.3164-73.623-15.7354-79.6011-20.6065-74.4844-40.4175-62.1655-57.3316-45.6059-68.395L-31.7715-45.2212C-45.9824-35.2197-55.2754-18.7026-55.2754,0-55.2754,18.7026-45.9824,35.2197-31.7715,45.2212Z" />
  </g>
  <use
     id="use11"
     transform="rotate(120)"
     xlink:href="#U" />
  <use
     id="use13"
     transform="rotate(240)"
     xlink:href="#U" />
  <path
     transform="translate(-142.5,-142.5)"
     id="path3347"
     d="M 126.04355,282.83266 C 66.533374,276.16849 17.242433,231.13677 4.1308943,171.45445 1.7501992,160.61777 0.79293408,135.96822 2.3106268,124.5826 10.638903,62.104481 58.741253,12.70127 120.70691,2.9844554 c 13.31245,-2.08752108 39.26406,-1.4327579 51.30438,1.2944174 27.46982,6.2220102 50.57792,18.8705112 69.87097,38.2447152 20.55353,20.639989 33.16931,43.891875 39.18004,72.211892 2.79434,13.16571 3.02678,39.19886 0.47201,52.86291 -5.15538,27.5732 -17.71806,52.10805 -36.89399,72.05375 -31.59728,32.86568 -73.72761,48.20512 -118.59677,43.18052 z m 74.46429,-40.30472 c 7.25722,-4.4852 10.94319,-13.16624 8.87451,-20.90081 -2.20385,-8.23995 -8.32911,-13.67816 -16.49563,-14.64537 -17.60505,-2.08505 -28.18592,19.21707 -16.00004,32.2124 5.90344,6.29558 16.42592,7.78068 23.62116,3.33378 z M 160.10885,223.2733 c 4.43528,-1.00064 4.69425,-1.22875 5.71109,-5.03064 1.43287,-5.35731 6.20107,-11.39097 11.67202,-14.76973 4.22113,-2.60689 5.07563,-2.77998 13.89042,-2.81371 10.75338,-0.0412 10.50089,0.0868 17.16435,-8.69793 8.39264,-11.06439 15.00878,-27.82108 15.60874,-39.53226 l 0.25905,-5.05645 -13.51427,-0.25415 -13.51426,-0.25415 -0.58235,3.47189 c -5.68644,33.90211 -39.408,54.77696 -71.24082,44.1006 l -6.50842,-2.18285 -2.15306,3.76094 c -8.18308,14.29409 -10.69983,19.24512 -10.30539,20.27304 0.6157,1.60448 12.53245,5.84267 20.87564,7.42442 7.74684,1.46868 25.22349,1.2336 32.63726,-0.43902 z m -55.71752,-24.00392 6.66046,-11.13882 -5.5062,-5.25569 c -11.305136,-10.79083 -16.626155,-22.22247 -17.380906,-37.341 -0.842401,-16.87426 4.059689,-29.63952 16.020686,-41.7186 l 6.71682,-6.783122 -6.64148,-11.374137 c -3.6528,-6.255776 -7.095136,-11.37414 -7.649626,-11.37414 -1.638989,0 -12.568676,9.417993 -16.614994,14.316962 -7.789582,9.431022 -12.12659,16.990777 -15.590829,27.176057 l -2.086009,6.13313 2.524876,2.41898 c 9.206158,8.82006 9.640797,25.49467 0.911394,34.96496 l -3.495358,3.79201 2.090905,5.93363 c 4.185495,11.87771 9.625096,20.87737 17.974607,29.73849 5.983935,6.35059 13.710158,12.6977 14.706867,12.0817 0.38407,-0.23738 3.695517,-5.44405 7.358787,-11.57041 z M 56.843182,158.32165 c 14.270767,-10.01934 9.170083,-32.32172 -7.980369,-34.89359 -5.61999,-0.84278 -11.102859,0.98227 -15.710497,5.22944 -4.82409,4.4467 -6.276015,8.38297 -5.754017,15.59953 0.488697,6.75617 3.963781,12.11119 9.927507,15.29805 5.915711,3.16121 13.984268,2.6513 19.517376,-1.23343 z M 224.43969,132.54601 c -1.96494,-15.72685 -8.1067,-29.89533 -18.61491,-42.942913 -4.14698,-5.14911 -5.41745,-6.183782 -7.0266,-5.722423 -13.72728,3.935762 -27.0459,-2.487839 -32.28807,-15.572609 -2.17504,-5.429026 -2.28697,-5.535171 -7.08825,-6.721997 -7.62491,-1.884796 -25.60735,-1.779747 -34.29767,0.200358 -8.68925,1.979865 -18.84677,5.863813 -18.84677,7.206477 0,0.723705 11.26081,21.931811 12.49791,23.538016 0.1354,0.175793 2.65356,-0.604437 5.59591,-1.733849 6.62773,-2.544036 22.05064,-3.489574 30.00026,-1.839239 2.92035,0.606263 8.70456,2.789525 12.85379,4.851693 14.44186,7.177606 25.1514,20.979876 28.71807,37.011376 l 1.53476,6.89845 13.80396,0 13.80398,0 -0.64637,-5.17334 z M 198.74187,76.487756 c 7.31937,-3.473265 12.22666,-12.435006 11.0024,-20.09268 C 207.65554,43.330225 193.58423,35.986407 182.01,41.92056 c -17.87535,9.164763 -11.44442,36.04073 8.62388,36.04073 2.75152,0 6.40012,-0.66309 8.10799,-1.473534 z"
     style="fill:#d1cecc;fill-opacity:1" />
</svg>
