<?xml version="1.0" encoding="UTF-8" standalone="no"?>
<svg
   xmlns:dc="http://purl.org/dc/elements/1.1/"
   xmlns:cc="http://creativecommons.org/ns#"
   xmlns:rdf="http://www.w3.org/1999/02/22-rdf-syntax-ns#"
   xmlns:svg="http://www.w3.org/2000/svg"
   xmlns="http://www.w3.org/2000/svg"
   height="56.492485"
   width="55.958862"
   version="1.1"
   id="svg2"
   viewBox="0 0 55.958862 56.492485">
  <metadata
     id="metadata70">
    <rdf:RDF>
      <cc:Work
         rdf:about="">
        <dc:format>image/svg+xml</dc:format>
        <dc:type
           rdf:resource="http://purl.org/dc/dcmitype/StillImage" />
        <dc:title></dc:title>
      </cc:Work>
    </rdf:RDF>
  </metadata>
  <defs
     id="0" />
  <g
     transform="translate(-35.97226,-25.308839)"
     id="g4904">
    <path
       style="fill:#d1cecc;fill-opacity:1;fill-rule:nonzero;stroke:none"
       d="m 41.509525,81.302671 c -2.139388,-0.612328 -3.734948,-1.891738 -4.687332,-3.758566 -2.594633,-5.085901 1.058606,-11.001059 6.794324,-11.001059 2.113817,0 4.725343,1.274396 5.850987,2.855218 0.944893,1.32698 1.876783,4.384867 1.602475,5.258335 -0.09935,0.316354 -0.291874,1.084993 -0.427832,1.708086 -0.30814,1.412195 -2.107376,3.589545 -3.582699,4.335614 -1.650222,0.834515 -3.889634,1.077574 -5.549923,0.602372 z"
       id="path4902" />
    <path
       style="fill:#d1cecc;fill-opacity:1;fill-rule:nonzero;stroke:none"
       d="M 62.255987,80 C 62.239573,75.280565 59.361118,68.326838 55.685398,64.126873 53.370905,61.482279 48.396956,58.065892 45.023616,56.803763 43.676285,56.299662 41.091214,55.671109 39.279014,55.406978 l -3.294908,-0.480238 0,-5.211714 0,-5.211715 1.377483,0.0032 c 4.067998,0.0095 10.417238,1.675609 14.940398,3.920627 8.118276,4.029412 15.119717,11.70288 18.22496,19.974269 1.400059,3.729315 2.331331,8.161916 2.331331,11.096499 l 0,2.303417 -5.298013,0 -5.298013,0 L 62.255987,80 Z"
       id="path4898" />
    <path
       style="fill:#d1cecc;fill-opacity:1;fill-rule:nonzero;stroke:none"
       d="M 81.145231,81.271523 C 81.055436,80.980132 80.880932,79.12053 80.757442,77.139073 80.357489,70.721611 77.356957,62.399734 73.23783,56.283664 70.597869,52.363854 65.079839,46.869682 61.153259,44.251339 54.518138,39.826874 47.01979,37.173545 39.522767,36.597278 l -3.538661,-0.272003 0,-5.508218 0,-5.508218 3.92053,0.295043 c 19.781003,1.488639 37.397731,13.334953 46.283134,31.122948 3.296331,6.599043 5.737604,16.134051 5.741652,22.425488 l 0.0017,2.649007 -5.311314,0 c -3.879421,0 -5.355333,-0.142831 -5.474581,-0.529802 z"
       id="path4900" />
  </g>
</svg>
