<?xml version="1.0" encoding="UTF-8" standalone="no"?>
<svg
   xmlns:dc="http://purl.org/dc/elements/1.1/"
   xmlns:cc="http://creativecommons.org/ns#"
   xmlns:rdf="http://www.w3.org/1999/02/22-rdf-syntax-ns#"
   xmlns:svg="http://www.w3.org/2000/svg"
   xmlns="http://www.w3.org/2000/svg"
   xml:space="preserve"
   id="svg2"
   height="49.661877"
   width="35.758125"
   version="1.1"><metadata
     id="metadata89"><rdf:RDF><cc:Work
         rdf:about=""><dc:format>image/svg+xml</dc:format><dc:type
           rdf:resource="http://purl.org/dc/dcmitype/StillImage" /><dc:title></dc:title></cc:Work></rdf:RDF></metadata><defs
     id="defs6"><clipPath
       id="clipPath20"><path
         id="path22"
         d="M 0,792 612,792 612,0 0,0 0,792 Z" /></clipPath></defs><g
     transform="matrix(1.25,0,0,-1.25,23.516625,28.7315)"
     id="g24"><path
       d="m 0,0 c 2.437,0 4.412,-2.383 4.412,-5.324 0,-2.942 -1.975,-5.324 -4.412,-5.324 -2.437,0 -4.41,2.382 -4.41,5.324 C -4.41,-2.383 -2.437,0 0,0"
       id="path26"
       style="fill:#ffffff;fill-opacity:1;fill-rule:nonzero;stroke:none" /></g><g
     transform="matrix(1.25,0,0,-1.25,14.839375,48.97075)"
     id="g32"><path
       d="m 0,0 c 0.063,0.197 0.108,0.401 0.108,0.615 0,1.361 -1.361,2.464 -3.04,2.464 -1.679,0 -3.039,-1.103 -3.039,-2.464 0,-0.214 0.044,-0.418 0.108,-0.615 L 0,0 Z"
       id="path34"
       style="fill:#ffffff;fill-opacity:1;fill-rule:nonzero;stroke:none" /></g><g
     transform="matrix(1.25,0,0,-1.25,28.14625,48.97075)"
     id="g40"><path
       d="m 0,0 c 0.063,0.197 0.107,0.401 0.107,0.615 0,1.361 -1.361,2.464 -3.04,2.464 -1.679,0 -3.039,-1.103 -3.039,-2.464 0,-0.214 0.044,-0.418 0.107,-0.615 L 0,0 Z"
       id="path42"
       style="fill:#ffffff;fill-opacity:1;fill-rule:nonzero;stroke:none" /></g><g
     transform="matrix(1.25,0,0,-1.25,7.4425,14.658625)"
     id="g48"><path
       d="m 0,0 c 0,-1.493 -1.21,-2.702 -2.703,-2.702 -1.492,0 -2.701,1.209 -2.701,2.702 0,1.493 1.209,2.703 2.701,2.703 C -1.21,2.703 0,1.493 0,0"
       id="path50"
       style="fill:#ffffff;fill-opacity:1;fill-rule:nonzero;stroke:none" /></g><g
     transform="matrix(1.25,0,0,-1.25,35.070625,14.658625)"
     id="g56"><path
       d="m 0,0 c 0,-1.493 -1.21,-2.702 -2.703,-2.702 -1.492,0 -2.701,1.209 -2.701,2.702 0,1.493 1.209,2.703 2.701,2.703 C -1.21,2.703 0,1.493 0,0"
       id="path58"
       style="fill:#ffffff;fill-opacity:1;fill-rule:nonzero;stroke:none" /></g><g
     transform="matrix(1.25,0,0,-1.25,12.143375,28.7315)"
     id="g68"><path
       d="m 0,0 c 2.437,0 4.411,-2.383 4.411,-5.324 0,-2.942 -1.974,-5.324 -4.411,-5.324 -2.436,0 -4.41,2.382 -4.41,5.324 C -4.41,-2.383 -2.436,0 0,0"
       id="path70"
       style="fill:#ffffff;fill-opacity:1;fill-rule:nonzero;stroke:none" /></g><g
     transform="matrix(1.25,0,0,-1.25,15.93675,48.974375)"
     id="g84"><path
       d="m 0,0 2.99,0 c 2.656,1.382 4.624,6.34 4.624,12.261 0,6.99 -2.74,12.656 -6.119,12.656 -3.38,0 -6.119,-5.666 -6.119,-12.656 C -4.624,6.34 -2.656,1.382 0,0"
       id="path86"
       style="fill:#ffffff;fill-opacity:1;fill-rule:nonzero;stroke:none" /></g><g
     transform="matrix(1.25,0,0,-1.25,33.1035,19.304)"
     id="g92"><path
       d="m 0,0 c 0,-4.411 -5.479,-7.986 -12.239,-7.986 -6.759,0 -12.238,3.575 -12.238,7.986 0,4.411 5.479,7.987 12.238,7.987 C -5.479,7.987 0,4.411 0,0"
       id="path94"
       style="fill:#ffffff;fill-opacity:1;fill-rule:nonzero;stroke:none" /></g><g
     transform="matrix(1.25,0,0,-1.25,14.282,17.355125)"
     id="g156"><path
       d="m 0,0 c 0,-0.79 -0.641,-1.43 -1.43,-1.43 -0.791,0 -1.431,0.64 -1.431,1.43 0,0.791 0.64,1.431 1.431,1.431 C -0.641,1.431 0,0.791 0,0"
       id="path158"
       style="fill:#ff4500;fill-opacity:1;fill-rule:nonzero;stroke:none" /></g><path
     id="path3678"
     d="m 11.568455,19.608611 c -1.138212,-0.450549 -1.7740745,-1.83943 -1.382236,-3.019145 0.545178,-1.641377 2.631584,-2.198876 3.914027,-1.045849 0.683608,0.614621 0.971006,1.506278 0.756005,2.34551 -0.202239,0.789414 -0.600814,1.291194 -1.320853,1.662867 -0.470863,0.243053 -1.426466,0.270559 -1.966943,0.05662 z"
     style="fill:#d1cecc;fill-opacity:1" /><g
     transform="matrix(1.25,0,0,-1.25,25.06025,17.355125)"
     id="g164"><path
       d="m 0,0 c 0,-0.79 -0.64,-1.43 -1.43,-1.43 -0.789,0 -1.43,0.64 -1.43,1.43 0,0.791 0.641,1.431 1.43,1.431 C -0.64,1.431 0,0.791 0,0"
       id="path166"
       style="fill:#ff4500;fill-opacity:1;fill-rule:nonzero;stroke:none" /></g><path
     id="path3680"
     d="m 22.522063,19.687728 c -0.41866,-0.12905 -0.988476,-0.564402 -1.249051,-0.954301 -0.313583,-0.469216 -0.408718,-0.807922 -0.409267,-1.457111 -0.0014,-1.69951 1.824024,-2.836144 3.411068,-2.123921 0.889749,0.399296 1.400106,1.206155 1.401405,2.215579 6.44e-4,0.502354 -0.03415,0.659157 -0.235797,1.062696 -0.42907,0.858646 -1.079531,1.273279 -2.053817,1.309195 -0.341615,0.01259 -0.730659,-0.01087 -0.864541,-0.05214 z"
     style="fill:#d1cecc;fill-opacity:1" /><path
     id="path3676"
     d="m 16.180029,26.048049 c -1.528801,-0.177557 -2.96896,-0.739751 -3.769687,-1.471571 -0.368426,-0.336721 -0.436346,-0.440431 -0.436346,-0.666274 0,-0.180468 0.06199,-0.329468 0.19057,-0.458047 0.284611,-0.284612 0.576251,-0.249234 1.023802,0.124191 0.720504,0.601172 1.687187,0.971285 3.043746,1.165358 0.990378,0.141686 3.366329,0.05319 4.202727,-0.156538 0.806556,-0.202244 1.624521,-0.590377 2.126024,-1.00882 0.429472,-0.35834 0.697851,-0.399229 1.009803,-0.153847 0.310344,0.244116 0.288824,0.701136 -0.04776,1.014253 -0.946471,0.880484 -2.296321,1.419649 -4.041389,1.614236 -0.855475,0.09539 -2.467196,0.09396 -3.301491,-0.0029 z"
     style="fill:#d1cecc;fill-opacity:1" /><path
     id="path3674"
     d="m 7.1858548,49.545922 c -0.300397,-0.130671 -0.37458,-0.261128 -0.483487,-0.85026 -0.189363,-1.024362 0.169041,-2.023183 1.0340867,-2.881848 0.831908,-0.825774 1.758686,-1.22546 3.0868535,-1.331253 l 0.596206,-0.04749 -0.159017,-0.396525 c -0.08746,-0.21809 -0.24473,-0.64795 -0.349491,-0.955246 -0.175652,-0.515237 -0.212697,-0.56592 -0.47601,-0.651251 -2.2587455,-0.731981 -4.0413912,-3.063348 -4.4431172,-5.810764 -0.139529,-0.954248 -0.0567,-2.420589 0.190776,-3.377449 0.481124,-1.860237 1.6503987,-3.499459 3.1270007,-4.383782 l 0.520143,-0.31151 -0.228367,-0.08632 C 7.8327995,27.793744 5.9765318,26.636877 4.6949218,25.404385 2.6336168,23.42208 1.7573848,21.488752 1.8176448,19.055931 l 0.02436,-0.983606 -0.375134,-0.286441 C 0.38996775,16.96359 -0.21566625,15.398467 0.01516775,14.034287 c 0.361412,-2.135868 2.43199305,-3.677318 4.50713305,-3.355348 0.7993,0.124015 1.361201,0.367177 2.05305,0.888452 0.05715,0.04306 0.208661,-0.0063 0.410785,-0.133927 0.176128,-0.111185 0.6978937,-0.390917 1.1594797,-0.621627 C 10.610868,9.5796538 13.344767,8.8876646 16.482311,8.7016988 l 0.898069,-0.05323 0.909259,-2.8836586 c 0.500093,-1.5860125 1.051587,-3.3326858 1.225544,-3.8814962 0.173957,-0.5488105 0.382592,-1.06414432 0.463634,-1.14518642 0.08495,-0.084947 0.254211,-0.1468962 0.399679,-0.1462798 0.138781,5.878e-4 1.649844,0.3315227 3.357919,0.73541012 2.77291,0.6556759 3.113907,0.7209349 3.18323,0.6091957 0.568006,-0.915551 1.059731,-1.37099302 1.797852,-1.66519062 0.367106,-0.1463203 0.601886,-0.1812087 1.230098,-0.1827937 0.714397,-0.0018 0.818301,0.017875 1.301128,0.2464059 1.035878,0.4903005 1.751142,1.42238732 1.940695,2.52898902 0.278087,1.6234591 -0.859504,3.2893488 -2.534164,3.7110329 -0.221186,0.055695 -0.617432,0.076208 -0.985198,0.051 -1.00142,-0.068638 -1.912428,-0.588298 -2.473804,-1.4111124 -0.287182,-0.4209281 -0.548346,-1.1433153 -0.548346,-1.5167463 0,-0.1666854 -0.02622,-0.3192676 -0.05826,-0.3390715 -0.08268,-0.0511 -5.709331,-1.3743025 -5.73496,-1.3486735 -0.01164,0.011636 -0.491053,1.5050413 -1.06537,3.3186781 -0.902082,2.8486861 -1.026839,3.3038942 -0.916569,3.3443383 0.0702,0.025749 0.477023,0.069228 0.904042,0.096619 2.821157,0.1809651 6.274241,1.2135539 8.46257,2.5305962 l 0.655003,0.394213 0.403509,-0.305405 c 1.04977,-0.794542 2.592897,-0.972813 3.846122,-0.444328 1.693135,0.713997 2.72258,2.511077 2.448467,4.274237 -0.163647,1.052626 -0.772167,2.081486 -1.570181,2.654803 l -0.380776,0.27356 4.66e-4,1.062425 c 3.88e-4,0.883367 -0.03279,1.193278 -0.196809,1.838823 -0.570523,2.245413 -2.08125,4.19843 -4.492235,5.807405 -0.74832,0.499393 -2.309169,1.313544 -2.945542,1.536418 -0.160132,0.05608 -0.290479,0.121152 -0.289661,0.1446 8.15e-4,0.02345 0.230109,0.176339 0.509537,0.339757 1.458292,0.852858 2.625528,2.529856 3.147257,4.521746 0.15767,0.601963 0.180944,0.867855 0.176238,2.013428 -0.0048,1.161042 -0.02942,1.409747 -0.204842,2.066684 -0.395303,1.480369 -1.067213,2.634021 -2.107791,3.619014 -0.651093,0.616314 -1.495822,1.135385 -2.181825,1.340693 -0.309944,0.09276 -0.311264,0.09485 -0.666821,1.055793 l -0.356267,0.962847 0.368842,0 c 0.651746,0 1.56303,0.22158 2.233389,0.54305 0.83768,0.40171 1.537246,1.079864 1.896576,1.838528 0.233306,0.492587 0.250985,0.587335 0.250985,1.345131 0,0.989406 -0.112732,1.268417 -0.563013,1.393467 -0.195117,0.05419 -3.668427,0.07996 -10.539472,0.07822 -8.5367755,-0.0022 -10.2895702,-0.0205 -10.4946632,-0.109712 z M 13.83735,48.302389 c 0,-0.02026 -0.219982,-0.309312 -0.488848,-0.642337 -0.268866,-0.333026 -0.644448,-0.857361 -0.834627,-1.165189 -0.190179,-0.30783 -0.398187,-0.580917 -0.46224,-0.606862 -0.06405,-0.02595 -0.378493,-0.06585 -0.698757,-0.08868 -1.6922515,-0.120628 -3.2062445,0.854495 -3.3882375,2.182275 l -0.04902,0.357631 2.9608645,0 c 1.628475,0 2.960864,-0.01658 2.960864,-0.03684 z M 19.781,48.096535 c 0.532642,-0.336644 1.314724,-1.163158 1.834326,-1.93854 1.450722,-2.164856 2.452708,-5.234995 2.911587,-8.921253 0.195037,-1.566776 0.194006,-5.711973 -0.0018,-7.177975 -0.07387,-0.553088 -0.145929,-1.017238 -0.160138,-1.031446 -0.01421,-0.01421 -0.440951,0.07767 -0.948319,0.204172 -1.172823,0.292419 -1.561458,0.366374 -2.708202,0.515353 -2.775829,0.360619 -6.050705,0.167766 -8.648829,-0.50932 -0.486669,-0.12683 -0.910087,-0.230598 -0.940929,-0.230598 -0.03084,0 -0.09438,0.305706 -0.14119,0.679348 -0.378416,3.020398 -0.297111,6.400394 0.224583,9.33618 0.478108,2.690516 1.400239,5.242931 2.508295,6.942838 0.489855,0.751505 1.450904,1.793308 1.973815,2.13967 l 0.353672,0.234262 1.679563,0 1.679563,0 0.383989,-0.242691 z m 7.736069,-0.106688 c -0.103212,-1.352631 -1.867094,-2.405473 -3.632582,-2.16825 l -0.53567,0.07198 -0.491158,0.737577 c -0.270137,0.405668 -0.663323,0.935712 -0.873746,1.177876 -0.210424,0.242165 -0.382588,0.460942 -0.382588,0.486172 0,0.02523 1.336374,0.03672 2.96972,0.02554 l 2.969721,-0.02033 -0.0237,-0.310559 z M 10.119363,40.256344 c -0.2044375,-0.886203 -0.4479455,-2.467993 -0.5604695,-3.64072 -0.109826,-1.144612 -0.133672,-3.879427 -0.04662,-5.3469 l 0.06157,-1.037895 -0.310707,0.246085 c -0.710906,0.563048 -1.467105,1.816036 -1.8071077,2.9943 -0.154937,0.536923 -0.179203,0.79477 -0.179017,1.902173 2.25e-4,1.358098 0.06839,1.763924 0.4584597,2.729643 0.417323,1.033187 1.170915,1.992583 2.000049,2.546258 0.261453,0.174592 0.4885975,0.304211 0.5047665,0.288042 0.01617,-0.01617 -0.03824,-0.322612 -0.120918,-0.680986 z m 15.505404,0.495065 c 0.199762,-0.116622 0.593427,-0.44172 0.874812,-0.72244 0.842018,-0.840029 1.396902,-1.925207 1.667648,-3.261396 0.159417,-0.786753 0.117325,-2.405713 -0.08267,-3.1799 -0.183727,-0.711192 -0.817741,-1.984543 -1.222654,-2.455566 -0.407889,-0.474485 -0.90199,-0.919581 -0.958309,-0.863262 -0.02219,0.02219 -0.0037,0.524705 0.04111,1.116699 0.151322,1.999506 0.07959,4.427493 -0.191224,6.472316 -0.114561,0.865024 -0.465954,2.763212 -0.554002,2.99266 -0.06115,0.159357 0.01161,0.142402 0.425292,-0.09911 z M 20.749583,28.436361 c 5.827979,-0.82696 10.261255,-3.735674 11.377898,-7.465147 0.178769,-0.59707 0.209216,-0.839993 0.209216,-1.669255 0,-0.829263 -0.03045,-1.072186 -0.209216,-1.669255 -1.060431,-3.54173 -5.117766,-6.355123 -10.564976,-7.325848 -2.922482,-0.5208043 -6.389102,-0.3949543 -9.228954,0.335042 -4.8666642,1.250996 -8.2558962,3.970797 -9.0893322,7.294034 -0.186108,0.742085 -0.172954,2.08299 0.02789,2.842826 1.044157,3.950331 5.8166427,7.014149 12.0404002,7.729639 1.1402,0.131078 4.300741,0.0892 5.437078,-0.07204 z M 34.082096,15.808528 c 0.17609,-0.363663 0.207417,-0.531752 0.210134,-1.127505 0.0029,-0.636765 -0.01971,-0.746675 -0.249887,-1.21447 -0.295028,-0.599595 -0.716571,-1.010373 -1.329216,-1.295276 -0.364887,-0.169686 -0.5444,-0.202497 -1.096274,-0.200376 -0.651847,0.0025 -1.014284,0.09932 -1.457708,0.389362 -0.175899,0.115057 -0.174366,0.117538 0.35918,0.581303 0.552772,0.480478 1.350393,1.386924 1.786369,2.030098 0.13679,0.2018 0.410389,0.701331 0.607997,1.110068 l 0.359286,0.743159 0.301589,-0.294493 c 0.165875,-0.161972 0.394712,-0.486813 0.50853,-0.72187 z M 3.2014108,14.907488 c 0.227593,-0.341048 0.834156,-1.037896 1.366415,-1.569803 l 0.957143,-0.956511 -0.443965,-0.206405 c -0.370902,-0.172437 -0.552569,-0.206405 -1.103902,-0.206405 -0.549851,0 -0.731171,0.03372 -1.086957,0.202154 -0.631602,0.299004 -1.043883,0.697251 -1.335903,1.290429 -0.228249,0.463638 -0.255482,0.589446 -0.25559,1.180747 -1.01e-4,0.562725 0.03248,0.731567 0.217591,1.127656 0.119742,0.256211 0.327076,0.578961 0.460742,0.717221 l 0.243029,0.251384 0.286063,-0.608588 c 0.157334,-0.334723 0.470235,-0.884569 0.695334,-1.221879 z M 30.825333,5.1256987 c 1.463878,-0.7294814 1.463878,-2.8279362 0,-3.5574175 -0.289164,-0.1440968 -0.525795,-0.2009822 -0.834749,-0.2006719 -0.685761,6.91e-4 -1.007551,0.1272105 -1.452176,0.5709694 -0.831589,0.8299692 -0.836808,2.0231388 -0.01246,2.8474903 0.577111,0.5771111 1.538005,0.7190398 2.299382,0.3396297 z"
     style="fill:#d1cecc;fill-opacity:1" /></svg>