<?xml version="1.0" encoding="UTF-8" standalone="no"?>
<svg
   xmlns:dc="http://purl.org/dc/elements/1.1/"
   xmlns:cc="http://creativecommons.org/ns#"
   xmlns:rdf="http://www.w3.org/1999/02/22-rdf-syntax-ns#"
   xmlns:svg="http://www.w3.org/2000/svg"
   xmlns="http://www.w3.org/2000/svg"
   version="1.1"
   id="svg2"
   height="199.37045"
   width="327.15521">
  <defs
     id="defs4" />
  <metadata
     id="metadata7">
    <rdf:RDF>
      <cc:Work
         rdf:about="">
        <dc:format>image/svg+xml</dc:format>
        <dc:type
           rdf:resource="http://purl.org/dc/dcmitype/StillImage" />
        <dc:title></dc:title>
      </cc:Work>
    </rdf:RDF>
  </metadata>
  <g
     transform="translate(-181.41624,-429.71501)"
     id="layer1">
    <path
       id="path4223"
       d="m 194.02698,617.86563 c 3.0486,-22.12311 4.01385,-37.51195 4.00812,-63.90097 -0.008,-36.49291 -1.55487,-62.97749 -5.28976,-90.56332 -1.30314,-9.625 -2.27002,-17.61614 -2.14863,-17.7581 0.1214,-0.14195 15.10458,9.85645 33.29596,22.21867 18.19138,12.36223 35.47935,24.01462 38.41771,25.8942 12.61213,8.06759 81.53224,45.72399 86.22032,47.10884 1.25,0.36925 4.96709,-2.02096 18.57143,-11.94204 19.9127,-14.52151 36.04291,-25.75763 68.4372,-47.6726 32.83788,-22.21506 42.28551,-29.12511 50.17857,-36.7009 3.30274,-3.16998 4.67588,-5.43378 3.29595,-5.43378 -0.24973,0 -4.66937,2.68811 -9.82143,5.97358 -5.15205,3.28548 -14.27735,8.75569 -20.27845,12.15603 -30.24769,17.13899 -53.68456,32.687 -90.25161,59.87289 -10.46091,7.7772 -19.48999,14.14035 -20.06462,14.14035 -0.57462,0 -6.80142,-3.58381 -13.83731,-7.96403 -16.65949,-10.37142 -27.40064,-16.52674 -45.30545,-25.96272 -17.20484,-9.06708 -33.61194,-18.331 -58.20136,-32.86214 -9.82143,-5.80398 -22.25588,-12.94946 -27.63211,-15.87884 -9.55215,-5.20473 -9.75669,-5.36626 -8.97313,-7.08599 0.75791,-1.66343 1.03908,-1.73729 5.13211,-1.34815 11.09863,1.0552 74.41261,4.27542 107.18741,5.45168 22.54869,0.80925 45.85014,0.45662 99.28572,-1.50255 19.36416,-0.70998 66.26842,-5.43353 78.00407,-7.8555 9.8062,-2.02378 10.8762,-1.36063 13.31834,8.2542 2.35037,9.25356 2.93094,18.22483 2.88696,44.61119 -0.0444,26.65716 -0.4643,36.57377 -3.47803,82.14285 -0.94834,14.33929 -1.94244,29.66381 -2.20914,34.0545 l -0.48488,7.98306 -5.0901,0.38204 c -2.79954,0.21013 -28.71508,0.7314 -57.59008,1.15839 -72.24382,1.06831 -101.45365,1.83225 -192.16233,5.02569 -21.81427,0.76797 -41.06332,1.39632 -42.77566,1.39632 l -3.11333,0 0.46754,-3.39285 z"
       style="fill:#d1cecc;fill-opacity:1;stroke:none" />
  </g>
</svg>
