<?xml version="1.0" encoding="UTF-8" standalone="no"?>
<svg
   xmlns:dc="http://purl.org/dc/elements/1.1/"
   xmlns:cc="http://creativecommons.org/ns#"
   xmlns:rdf="http://www.w3.org/1999/02/22-rdf-syntax-ns#"
   xmlns:svg="http://www.w3.org/2000/svg"
   xmlns="http://www.w3.org/2000/svg"
   version="1.0"
   viewBox="0 0 200 200"
   id="svg2">
  <defs
     id="defs17" />
  <path
     id="path4220"
     d="m 52.913907,190.44493 c 0,-0.15594 1.709181,-0.92303 3.798179,-1.70462 8.69206,-3.25212 10.384834,-3.47341 30.307782,-3.96207 18.190802,-0.44618 19.520142,-0.56499 25.165562,-2.2493 10.6936,-3.19042 28.07452,-12.68682 36.42384,-19.90086 l 2.64901,-2.28882 -5.09265,1.5978 c -6.82836,2.14237 -16.51166,4.05178 -25.37093,5.00278 -8.33128,0.89433 -25.6633,0.46964 -33.774832,-0.82759 l -5.298014,-0.84729 6.953643,-0.45826 c 28.624553,-1.88642 52.943843,-11.59793 68.624613,-27.40411 4.14494,-4.17809 9.81397,-11.50264 9.30033,-12.01628 -0.1009,-0.1009 -2.40211,0.96895 -5.1138,2.37744 -6.88603,3.5767 -16.41574,7.00634 -25.9102,9.3248 -8.48325,2.07154 -22.92192,4.32976 -23.56594,3.68575 -0.20732,-0.20732 0.1565,-0.37695 0.8085,-0.37695 2.53327,0 15.37939,-4.81154 22.30725,-8.35522 8.57701,-4.38726 19.79786,-11.75594 27.09604,-17.79387 2.86825,-2.37297 5.3744,-4.31449 5.56921,-4.31449 0.1948,0 0.3542,18.17881 0.3542,40.39736 l 0,40.39735 -57.6159,0 c -31.68874,0 -57.615893,-0.1276 -57.615893,-0.28355 z"
     style="fill:#d1cecc;fill-opacity:1;stroke:none" />
  <metadata
     id="metadata13">
    <rdf:RDF>
      <cc:Work>
        <dc:format>image/svg+xml</dc:format>
        <dc:type
           rdf:resource="http://purl.org/dc/dcmitype/StillImage" />
        <cc:license
           rdf:resource="http://creativecommons.org/licenses/publicdomain/" />
        <dc:publisher>
          <cc:Agent
             rdf:about="http://openclipart.org/">
            <dc:title>Openclipart</dc:title>
          </cc:Agent>
        </dc:publisher>
        <dc:title></dc:title>
        <dc:date>2013-05-22T03:15:05</dc:date>
        <dc:description>This is a part of the GnuPG logo, all I did was to cut it and to make it grayish, for my website :)</dc:description>
        <dc:source>https://openclipart.org/detail/178428/gnupg-logo-by-dimaursu-178428</dc:source>
        <dc:creator>
          <cc:Agent>
            <dc:title>dimaursu</dc:title>
          </cc:Agent>
        </dc:creator>
        <dc:subject>
          <rdf:Bag>
            <rdf:li>GnuPG</rdf:li>
            <rdf:li>logo</rdf:li>
          </rdf:Bag>
        </dc:subject>
      </cc:Work>
      <cc:License
         rdf:about="http://creativecommons.org/licenses/publicdomain/">
        <cc:permits
           rdf:resource="http://creativecommons.org/ns#Reproduction" />
        <cc:permits
           rdf:resource="http://creativecommons.org/ns#Distribution" />
        <cc:permits
           rdf:resource="http://creativecommons.org/ns#DerivativeWorks" />
      </cc:License>
    </rdf:RDF>
  </metadata>
  <path
     id="path4218"
     d="m 31.721854,118.93838 0,-22.249638 5.273565,0 5.273564,0 0.190012,-23.013245 0.190012,-23.013245 2.448957,-5.128567 C 51.76562,31.570383 62.12346,20.722275 74.437086,14.805856 83.79126,10.311386 87.300152,9.593667 99.602649,9.6584212 c 9.497421,0.049989 11.199461,0.2392748 16.416101,1.8256458 17.17267,5.222173 29.83796,16.32293 38.0873,33.382397 l 3.11249,6.43659 0,22.858407 0,22.858407 -5.62914,2.763337 c -8.89668,4.367375 -21.97989,9.378245 -30.71239,11.762855 -8.94268,2.44201 -15.60974,3.43672 -26.9035,4.01396 -15.849378,0.81008 -26.950472,3.50248 -39.403974,9.55683 -8.729135,4.24373 -14.437145,8.01081 -19.521521,12.88349 l -3.326161,3.18767 0,-22.24963 z M 131.72185,79.940464 c 0,-18.281979 -0.46364,-21.654918 -3.82974,-27.860678 -8.03771,-14.818389 -26.55446,-20.286334 -42.622023,-12.586163 -8.738454,4.187792 -17.077992,14.86485 -17.325113,22.181235 -0.05378,1.592073 -0.03061,10.1215 0.05147,18.954281 l 0.149247,16.059603 31.78808,0 31.788075,0 0,-16.748278 z m -68.636887,-38.9787 c 7.876267,-9.229662 16.34697,-14.785003 27.254997,-17.874643 4.428163,-1.254253 6.960186,-1.503488 15.55408,-1.531037 5.6457,-0.0181 11.90397,0.179166 13.90728,0.438364 l 3.64239,0.47127 -3.64239,-1.321623 C 106.3396,16.25957 87.793975,17.244868 75.449179,23.50045 c -7.21436,3.655793 -14.551252,12.385254 -19.814203,23.575014 -3.85419,8.194538 -3.915185,9.529489 -0.179012,3.917913 1.818817,-2.731788 5.251867,-7.246013 7.628999,-10.031613 z"
     style="fill:#d1cecc;fill-opacity:1;stroke:none" />
</svg>
