<?xml version="1.0" encoding="UTF-8" standalone="no"?>
<svg
   xmlns:dc="http://purl.org/dc/elements/1.1/"
   xmlns:cc="http://creativecommons.org/ns#"
   xmlns:rdf="http://www.w3.org/1999/02/22-rdf-syntax-ns#"
   xmlns:svg="http://www.w3.org/2000/svg"
   xmlns="http://www.w3.org/2000/svg"
   version="1.1"
   id="svg2"
   viewBox="0 0 239 240.12604"
   height="67.768906mm"
   width="67.451111mm">
  <defs
     id="defs4" />
  <metadata
     id="metadata7">
    <rdf:RDF>
      <cc:Work
         rdf:about="">
        <dc:format>image/svg+xml</dc:format>
        <dc:type
           rdf:resource="http://purl.org/dc/dcmitype/StillImage" />
        <dc:title></dc:title>
      </cc:Work>
    </rdf:RDF>
  </metadata>
  <g
     transform="translate(-83.64239,-672.27202)"
     id="layer1">
    <path
       transform="translate(83.64239,672.27202)"
       id="path4334"
       d="M 96.881105,238.48918 C 70.428589,232.43144 49.733724,220.91177 32.633242,202.72602 19.480393,188.73844 9.5549856,171.39379 3.9083916,152.52933 1.499208,144.4806 1.1307825,141.27626 0.69587542,124.58886 0.16180474,104.09654 0.87856858,97.565641 5.1505859,83.999119 15.743666,50.35898 42.942724,20.774938 74.607775,8.4514869 90.122932,2.4132752 95.556021,1.3733852 114.59105,0.79871114 140.03952,0.03041292 153.14484,2.6161971 172.76403,12.276699 c 34.21028,16.845161 60.68344,53.365119 65.22152,89.973661 1.57773,12.72752 0.51179,37.23325 -2.04194,46.94353 -11.37907,43.26781 -44.45274,76.58253 -87.00738,87.64154 -11.08546,2.88087 -42.35826,3.87438 -52.055125,1.65375 z m 32.862225,-19.79075 c 5.27805,-0.52466 11.63021,-1.55229 14.11594,-2.28362 l 4.51947,-1.32969 -12.60069,-7.91903 c -6.9304,-4.35547 -17.87235,-11.27106 -24.31547,-15.36799 -6.4431,-4.09693 -12.011569,-7.44896 -12.374361,-7.44896 -0.362787,0 -0.659613,0.68185 -0.659613,1.51523 0,2.34076 -1.731027,1.7902 -2.382037,-0.75762 -0.414959,-1.624 -2.825309,-3.33471 -8.443267,-5.9925 -4.324386,-2.04581 -13.090058,-7.68458 -19.479273,-12.53061 -6.389215,-4.84603 -17.526146,-12.66306 -24.748737,-17.37119 -7.222591,-4.70812 -15.0639,-10.12308 -17.425132,-12.03321 -3.749447,-3.03316 -4.293148,-3.22288 -4.293148,-1.49806 0,3.26624 4.858813,18.99455 8.024936,25.97729 13.69651,30.20701 44.147976,52.6576 77.304702,56.99354 8.58539,1.12271 11.86195,1.1294 22.75668,0.0465 l 0,-5e-5 z m 58.48652,-27.53076 C 213.75929,165.67633 223.71201,131.43873 215.61241,96.970942 207.21567,61.238655 179.83725,33.52636 143.05253,23.526207 131.43402,20.36764 107.33935,20.410408 95.398148,23.610794 85.115315,26.366715 72.778797,31.984365 63.96338,37.925168 55.704447,43.49095 43.433385,55.762013 37.867603,64.020945 29.037637,77.123523 21.657012,97.019066 21.657012,107.71894 c 0,4.02158 0.477276,4.80515 6.313453,10.36503 8.394018,7.99662 22.744365,17.31415 29.860931,19.38837 9.912587,2.88917 11.62731,3.7535 16.875479,8.50626 5.881887,5.32667 13.494649,10.0985 25.829695,16.19057 7.09399,3.5036 9.30977,4.16464 12.16445,3.6291 3.87716,-0.72736 16.65382,-8.68713 16.33321,-10.17547 -0.11222,-0.52093 -2.60143,-1.56068 -5.53157,-2.31056 -11.27266,-2.88488 -32.822779,-19.85987 -38.384523,-30.23543 -4.134142,-7.71232 -6.02211,-17.13361 -5.688342,-28.38579 0.260982,-8.798343 0.02517,-10.377455 -2.223919,-14.892671 -1.859098,-3.732273 -3.680823,-5.688251 -6.978517,-7.4928 l -4.462663,-2.442038 2.798511,-2.103649 c 1.539182,-1.157006 4.001949,-3.409129 5.472816,-5.004718 6.984821,-7.577095 8.443186,-8.618474 13.7247,-9.800424 4.918993,-1.100823 5.83004,-1.012717 9.899727,0.957385 4.88761,2.366049 8.31699,6.608738 14.39187,17.805024 2.92317,5.387526 7.01707,10.197645 17.19483,20.203051 7.34702,7.22259 14.6472,14.95026 16.22263,17.17259 1.57545,2.22234 6.10649,7.44988 10.069,11.61676 3.96251,4.16688 8.88618,10.07627 10.9415,13.13198 2.05531,3.05571 4.92903,7.25238 6.38603,9.32593 1.45702,2.07356 7.37021,7.0304 13.14044,11.0152 9.88266,6.82476 16.2164,12.9939 13.34062,12.9939 -0.68432,0 -6.00411,-2.51927 -11.82177,-5.59838 -12.68159,-6.71199 -20.32982,-8.54375 -35.67318,-8.54375 -10.31934,0 -11.24919,0.16483 -13.31849,2.36089 -1.22353,1.29849 -5.56516,4.10581 -9.64806,6.23851 -7.83127,4.09064 -9.66305,6.17787 -6.81874,7.76963 0.95001,0.53164 2.14637,2.06887 2.65856,3.41605 0.96251,2.53158 10.41251,9.13361 20.16993,14.09125 10.45229,5.3107 28.78656,12.53312 31.88868,12.56192 2.55114,0.0236 4.57557,-1.44526 11.44555,-8.30499 z M 94.196873,62.407878 c 0.269332,-2.786641 -0.06586,-3.343664 -2.358337,-3.919038 -3.61501,-0.90731 -6.030301,1.507981 -5.122991,5.12299 0.575374,2.292473 1.132397,2.62767 3.919039,2.358338 2.840139,-0.274502 3.287788,-0.72215 3.562289,-3.56229 z"
       style="fill:#d1cecc;fill-opacity:1;fill-rule:nonzero;stroke:none" />
  </g>
</svg>
