<?xml version="1.0" encoding="UTF-8" standalone="no"?>
<svg
   xmlns:dc="http://purl.org/dc/elements/1.1/"
   xmlns:cc="http://creativecommons.org/ns#"
   xmlns:rdf="http://www.w3.org/1999/02/22-rdf-syntax-ns#"
   xmlns:svg="http://www.w3.org/2000/svg"
   xmlns="http://www.w3.org/2000/svg"
   height="25.217215"
   width="35.263474"
   version="1.1"
   id="svg2"
   enable-background="new 249.3 336.5 106 40"
   viewBox="249.3 336.5 35.263474 25.217215">
  <metadata
     id="metadata24">
    <rdf:RDF>
      <cc:Work
         rdf:about="">
        <dc:format>image/svg+xml</dc:format>
        <dc:type
           rdf:resource="http://purl.org/dc/dcmitype/StillImage" />
        <dc:title></dc:title>
      </cc:Work>
    </rdf:RDF>
  </metadata>
  <defs
     id="defs22" />
  <path
     id="path4224"
     d="m 265.31987,361.58143 c 0.0221,-0.0747 0.58452,-2.68923 1.2498,-5.81011 l 1.2096,-5.67431 -0.64729,-0.96319 c -0.60725,-0.90361 -1.24235,-1.96674 -1.98499,-3.32285 l -0.31869,-0.58193 -0.002,1.16387 c -0.006,2.75958 -0.63577,4.50798 -2.22456,6.17095 -2.37152,2.48224 -6.02781,3.08629 -9.10588,1.50436 -1.45458,-0.74755 -2.63204,-1.96281 -3.37698,-3.48538 -0.80912,-1.65373 -0.76561,-1.2104 -0.79391,-8.0889 L 249.3,336.5 l 1.94294,0 1.94293,0 0.002,5.29562 c 9e-4,3.11062 0.0336,5.51971 0.0792,5.83875 0.23218,1.624 1.52116,2.92931 3.18655,3.22693 1.51204,0.27022 3.20361,-0.56045 3.93475,-1.9322 0.48635,-0.91248 0.47952,-0.81428 0.47952,-6.89761 l 0,-5.53149 1.96852,0 1.96851,0 0.40022,1.16317 c 0.51289,1.49062 1.11507,2.91979 1.84747,4.38462 0.73056,1.46113 1.73228,3.17265 1.80809,3.08925 0.0316,-0.0348 0.14986,-0.34506 0.26284,-0.68957 0.11297,-0.34451 0.34391,-0.89722 0.5132,-1.22824 1.11157,-2.17357 2.69601,-3.54541 4.86487,-4.2121 0.6302,-0.19371 0.78779,-0.20993 2.07855,-0.21389 1.67761,-0.005 2.2325,0.11438 3.5692,0.76888 2.13175,1.04378 3.61876,2.88521 4.24922,5.26199 0.14238,0.53674 0.16851,0.84039 0.16508,1.91796 -0.004,1.12611 -0.0284,1.37093 -0.20587,2.03334 -0.89273,3.33165 -3.68902,5.74836 -6.97247,6.026 -1.91964,0.16232 -4.06456,-0.30383 -5.68598,-1.23573 -0.29463,-0.16934 -0.54712,-0.29647 -0.56107,-0.28251 -0.014,0.014 -0.40922,1.83876 -0.87836,4.05513 -0.46914,2.21636 -0.872,4.10831 -0.89525,4.20433 l -0.0423,0.17458 -2.02112,0 c -1.88847,0 -2.01849,-0.009 -1.98094,-0.13578 z m 12.68489,-11.0263 c 1.96096,-0.74511 3.17221,-3.03095 2.61491,-4.93482 -0.21724,-0.74215 -0.49578,-1.20824 -1.05808,-1.77054 -1.38457,-1.38457 -3.52741,-1.5889 -5.03377,-0.47998 -0.85685,0.63078 -1.52659,1.8137 -1.86538,3.29469 -0.0927,0.40541 -0.25481,1.10064 -0.36017,1.54494 -0.10535,0.44431 -0.16182,0.82839 -0.12549,0.85351 0.0363,0.0251 0.29115,0.20741 0.56627,0.40509 1.67939,1.20669 3.79606,1.64401 5.26171,1.08711 z"
     style="fill:#d1cecc;fill-opacity:1;stroke:none" />
</svg>
