<?xml version="1.0" encoding="UTF-8" standalone="no"?>
<svg
   xmlns:dc="http://purl.org/dc/elements/1.1/"
   xmlns:cc="http://creativecommons.org/ns#"
   xmlns:rdf="http://www.w3.org/1999/02/22-rdf-syntax-ns#"
   xmlns:svg="http://www.w3.org/2000/svg"
   xmlns="http://www.w3.org/2000/svg"
   version="1.1"
   id="svg4230"
   viewBox="0 0 48.000001 48.000001"
   height="48"
   width="48">
  <defs
     id="defs4232" />
  <metadata
     id="metadata4235">
    <rdf:RDF>
      <cc:Work
         rdf:about="">
        <dc:format>image/svg+xml</dc:format>
        <dc:type
           rdf:resource="http://purl.org/dc/dcmitype/StillImage" />
        <dc:title></dc:title>
        <cc:license
           rdf:resource="http://creativecommons.org/licenses/by-sa/3.0/" />
      </cc:Work>
      <cc:License
         rdf:about="http://creativecommons.org/licenses/by-sa/3.0/">
        <cc:permits
           rdf:resource="http://creativecommons.org/ns#Reproduction" />
        <cc:permits
           rdf:resource="http://creativecommons.org/ns#Distribution" />
        <cc:requires
           rdf:resource="http://creativecommons.org/ns#Notice" />
        <cc:requires
           rdf:resource="http://creativecommons.org/ns#Attribution" />
        <cc:permits
           rdf:resource="http://creativecommons.org/ns#DerivativeWorks" />
        <cc:requires
           rdf:resource="http://creativecommons.org/ns#ShareAlike" />
      </cc:License>
    </rdf:RDF>
  </metadata>
  <g
     transform="translate(0,-1004.3622)"
     id="layer1">
    <path
       transform="translate(0,1004.3622)"
       id="path3448"
       d="M 7.4628878,44.951415 C 6.5332205,44.795029 5.7525478,44.251716 5.3368505,43.471788 l -0.2796254,-0.524631 0,-9.849281 c 0,-11.002763 -0.039725,-10.305004 0.6300093,-11.065863 0.215678,-0.245023 0.5796608,-0.511692 0.9416781,-0.689912 l 0.59011,-0.29051 16.7956455,0 16.795645,0 0.526566,0.258538 c 0.685291,0.33647 1.22633,0.899172 1.456781,1.515109 0.179902,0.480831 0.182168,0.607585 0.182168,10.190544 0,8.845921 -0.01309,9.742162 -0.14813,10.139248 -0.207022,0.608768 -0.966576,1.35558 -1.664483,1.636555 L 40.633537,45.004834 24.281692,45.0174 C 15.087967,45.024465 7.7254325,44.99558 7.4628878,44.951415 Z M 26.14476,43.286453 c 4.859343,-1.010651 8.345786,-5.295263 8.345786,-10.256427 0,-2.930402 -1.004821,-5.348625 -3.088111,-7.431916 -2.079961,-2.079961 -4.502802,-3.088334 -7.419584,-3.087991 -3.811242,4.51e-4 -7.173657,1.96211 -9.134975,5.329423 -1.027055,1.763312 -1.538272,4.161297 -1.314408,6.165549 0.283031,2.533975 1.287645,4.64226 3.057504,6.41649 1.759021,1.763362 3.953479,2.79274 6.541671,3.068569 0.644623,0.0687 2.212059,-0.0373 3.012117,-0.203697 z"
       style="fill:#d1cecc;fill-opacity:1" />
    <path
       id="path3462"
       d="m 22.299599,1045.7796 c -1.34036,-0.263 -2.995865,-1.1263 -4.148938,-2.1636 -0.943182,-0.8485 -1.954522,-2.4841 -2.40109,-3.8833 -0.243753,-0.7637 -0.347368,-2.9872 -0.180354,-3.8703 0.588504,-3.1117 2.733246,-5.5984 5.690788,-6.5981 1.095625,-0.3704 1.913201,-0.4794 3.175397,-0.4234 2.231692,0.099 4.025837,0.8955 5.593594,2.4837 1.143746,1.1586 1.888423,2.4404 2.291573,3.9445 0.247985,0.9252 0.281317,2.7733 0.06856,3.8016 -0.330649,1.5982 -1.086593,3.0102 -2.264206,4.2293 -1.242189,1.286 -2.666549,2.076 -4.412704,2.4475 -0.663081,0.1411 -2.75669,0.1608 -3.412624,0.032 z m 3.348128,-2.3903 c 2.660859,-0.7051 4.604211,-3.2368 4.598644,-5.9909 -0.0021,-1.0607 -0.192038,-1.8596 -0.674135,-2.8362 -0.342933,-0.6946 -0.545241,-0.9701 -1.173093,-1.5974 -1.326998,-1.3258 -2.829083,-1.913 -4.679288,-1.8293 -1.722816,0.078 -3.082681,0.7211 -4.311236,2.0389 -0.608093,0.6522 -1.254675,1.7465 -1.407429,2.382 l -0.05843,0.2431 1.62267,-0.01 1.622669,-0.01 0.266026,-0.3665 c 0.780316,-1.0747 2.34394,-1.5382 3.667256,-1.0871 0.685634,0.2338 1.674648,1.2207 1.896674,1.8927 0.216948,0.6567 0.161247,2.0265 -0.102984,2.5327 -0.325988,0.6244 -0.881508,1.1682 -1.509222,1.4772 -0.544466,0.2681 -0.655203,0.2903 -1.431658,0.287 -0.671494,0 -0.926547,-0.043 -1.262184,-0.1961 -0.473945,-0.2169 -1.21182,-0.8695 -1.487554,-1.3157 l -0.183354,-0.2966 -1.551152,0 -1.551152,0 0.0531,0.3314 c 0.0292,0.1823 0.210897,0.6497 0.403762,1.0386 1.35854,2.7394 4.308483,4.083 7.252073,3.303 z"
       style="fill:#cfcfcf;fill-opacity:1" />
    <path
       id="path3482"
       d="m 7.2451561,1023.2918 c -0.554865,-0.1257 -1.27565,-0.6041 -1.647679,-1.0935 -0.586823,-0.7721 -0.598403,-0.8696 -0.597437,-5.0321 l 8.64e-4,-3.7184 0.209283,-0.4419 c 0.267985,-0.5659 0.670131,-0.9437 1.335786,-1.2548 l 0.53033,-0.2478 16.8840339,0 16.884033,0 0.598566,0.2946 c 0.689285,0.3394 1.204779,0.9118 1.377029,1.5292 0.0789,0.2828 0.100437,1.3776 0.08064,4.0982 l -0.02702,3.7123 -0.229309,0.4861 c -0.292422,0.62 -0.874325,1.2019 -1.494264,1.4943 l -0.486136,0.2293 -16.528622,0.013 c -9.879187,0.01 -16.6740444,-0.02 -16.8900989,-0.069 z m 8.5549039,-2.7088 c 0.728093,-0.3587 1.391764,-1.0574 1.677384,-1.7659 0.284878,-0.7066 0.281346,-2.358 -0.0068,-3.1596 -0.755352,-2.1015 -2.726704,-3.0459 -4.504111,-2.1578 -1.352703,0.676 -2.104035,2.1796 -2.02782,4.0582 0.02769,0.6826 0.07966,0.9389 0.277794,1.37 0.393857,0.857 1.252307,1.6093 2.17952,1.9099 0.121534,0.039 0.579992,0.063 1.018794,0.053 0.701975,-0.016 0.868388,-0.053 1.385196,-0.308 z m 19.040239,0.203 c 0.947674,-0.2814 1.785322,-1.0786 2.161219,-2.0568 0.265034,-0.6897 0.263869,-2.0909 -0.0025,-2.9523 -0.647843,-2.0955 -2.663374,-3.1516 -4.422718,-2.3175 -0.977719,0.4636 -1.694477,1.354 -1.988174,2.4699 -0.214732,0.8159 -0.194834,2.1765 0.04094,2.7999 0.359515,0.9505 1.209586,1.7657 2.146425,2.0584 0.507928,0.1586 1.527801,0.1579 2.064762,0 l 0,0 z"
       style="fill:#cfcfcf;fill-opacity:1" />
    <path
       transform="translate(0,1004.3622)"
       id="path3523"
       d="M 4.4188552,6.1443276 C 2.0068555,3.1063943 1.521691,2.4276727 1.521691,2.091335 c 0,-0.4485539 0.5766557,-0.7137297 1.082013,-0.4975649 0.4009179,0.1714911 0.5757864,0.3732018 2.6766149,3.0874734 L 7.1385973,7.0821401 6.6061441,7.3337903 C 6.313295,7.4721979 6.0067842,7.6458832 5.9250091,7.7197576 5.7886124,7.8429763 5.6641614,7.712801 4.4188552,6.1443276 Z"
       style="fill:#cfcfcf;fill-opacity:1" />
    <path
       transform="translate(0,1004.3622)"
       id="path3525"
       d="M 41.917185,7.6875752 C 41.799434,7.6050989 41.513588,7.4339876 41.281972,7.3073277 L 40.860853,7.0770371 42.912709,4.4375746 C 45.191632,1.5060187 45.34618,1.36131 45.991604,1.5546839 46.453051,1.6929366 46.59729,1.9813441 46.40531,2.3818923 46.176539,2.8592016 42.325854,7.837532 42.185432,7.837532 c -0.02978,0 -0.150496,-0.067481 -0.268247,-0.1499568 z"
       style="fill:#cfcfcf;fill-opacity:1" />
  </g>
</svg>
