<?xml version="1.0" encoding="UTF-8" standalone="no"?>
<svg
   xmlns:dc="http://purl.org/dc/elements/1.1/"
   xmlns:cc="http://creativecommons.org/ns#"
   xmlns:rdf="http://www.w3.org/1999/02/22-rdf-syntax-ns#"
   xmlns:svg="http://www.w3.org/2000/svg"
   xmlns="http://www.w3.org/2000/svg"
   height="586.67706"
   width="500.37064"
   id="svg2"
   viewBox="0 0 500.37064 586.67706"
   version="1.0">
  <defs
     id="defs24" />
  <metadata
     id="metadata4">
    <rdf:RDF>
      <cc:Work
         rdf:about="">
        <dc:format>image/svg+xml</dc:format>
        <dc:type
           rdf:resource="http://purl.org/dc/dcmitype/StillImage" />
        <dc:title></dc:title>
      </cc:Work>
    </rdf:RDF>
  </metadata>
  <path
     style="fill:#d0cecc;fill-opacity:0.51372549"
     id="Dribbble"
     d="m 1200.7155,385.50206 c 5.3914,-3.63675 11.3656,-6.30369 16.9027,-10.42534 -2.6228,-8.2433 -5.0999,-17.69884 -7.2856,-25.21479 -0.8743,-2.66694 -1.4571,-6.06124 -2.9143,-8.00084 -36.2825,17.45639 -76.4993,28.36663 -123.5647,28.12418 -0.8742,63.03697 12.8228,106.92039 30.8912,140.37847 20.9827,-53.82387 48.9596,-99.16199 85.9707,-124.86168 z m 24.6255,23.76009 c -41.8196,25.21478 -74.7508,64.97656 -95.1506,125.83148 13.8427,17.94128 32.3483,33.45808 54.2053,40.00422 24.0426,7.03105 49.251,-0.24245 67.028,-13.33474 -5.3914,-51.39937 -14.1342,-100.37424 -24.0427,-143.53032 -0.2914,-3.15184 -0.2914,-7.03104 -2.04,-8.97064 z m -72.5651,-214.81058 c -33.514,27.88174 -57.1195,72.49251 -66.7366,140.37847 41.8197,-0.9698 78.9765,-9.45554 111.6162,-25.21478 -14.1341,-39.51933 -28.414,-79.03866 -44.8796,-115.16369 z m 51.5825,-158.077305 c -112.782,0 -204.1441,152.258515 -204.1441,339.672255 0,187.41374 91.3621,339.67225 204.1441,339.67225 102.7277,0 187.8241,-126.31638 201.9583,-290.93983 1.4571,-11.15269 2.0399,-22.79029 1.8942,-34.67033 0.1457,-4.849 0.1457,-9.45554 0.1457,-14.06209 0.1458,-187.41374 -91.2163,-339.672255 -203.9982,-339.672255 z m 104.3305,499.446715 c -11.2199,20.60823 -24.6255,37.09482 -40.5082,50.18712 -15.8828,13.33474 -33.9512,23.51763 -55.371,25.21478 -45.171,3.63675 -80.4336,-25.21478 -104.0391,-61.33981 -24.1884,-37.09483 -42.5482,-87.0395 -45.7539,-159.04711 -1.6029,-38.30708 2.9142,-72.00761 9.7628,-100.61669 6.9942,-29.82133 15.4455,-51.88427 26.8112,-72.97741 16.1741,-29.09398 38.0311,-54.79367 65.5708,-67.40106 9.9085,-4.60655 20.2542,-7.51595 30.5998,-8.72819 46.191,-4.849 80.2879,25.94213 104.3305,62.06716 24.0427,35.88258 42.8397,87.76685 45.3168,159.53201 2.9143,75.4019 -14.4256,132.86252 -36.7197,173.1092 z m -60.0338,-136.25683 c 9.3257,45.09568 17.9227,91.16115 23.1684,143.04542 6.7028,-6.3037 12.5313,-14.78944 18.0684,-24.00253 16.6113,-27.88174 28.9969,-63.76432 33.9512,-110.31469 -20.6913,-10.42534 -49.8339,-15.51679 -75.188,-8.7282 z m -26.9569,-101.34404 c 25.2084,-16.97149 47.7939,-38.79197 62.6566,-72.9774 -19.817,-27.63929 -48.3767,-52.85407 -84.805,-49.70222 -8.7428,0.72735 -15.2999,1.93959 -23.1684,4.84899 13.5514,33.21563 28.1227,67.64351 39.7797,102.31384 1.7486,5.3339 2.9143,11.39515 5.5371,15.51679 z m 8.8885,30.54869 c 2.9143,9.21309 5.6828,19.63843 8.1599,28.85153 0.8743,3.3943 1.1657,7.51594 2.9143,9.94044 28.1226,-5.33389 59.1595,-1.4547 83.6393,6.7886 -0.8743,-55.03612 -11.9485,-93.3432 -27.2484,-124.61923 -17.4855,34.67033 -40.6539,59.88512 -67.4651,79.03866 z" />
  <g
     transform="translate(-49.687867,-56.238252)"
     id="g4844">
    <path
       style="fill:#d0cecc;fill-opacity:0.51372549;stroke:none"
       d="m 188.50993,641.01397 c -5.73675,-1.61306 -19.81788,-6.59507 -31.29139,-11.07115 -11.47351,-4.47611 -33.37748,-10.99019 -48.67549,-14.47577 -42.805121,-9.75297 -50.988256,-12.32568 -55.674187,-17.50357 -4.006508,-4.42715 -4.085787,-5.62626 -1.037972,-15.69956 3.625092,-11.98124 4.1368,-34.41434 1.209252,-53.01316 -1.738776,-11.04651 -1.420731,-12.43851 4.10434,-17.96357 5.177359,-5.17736 7.975722,-5.98918 20.645011,-5.98918 18.074415,0 23.644576,-3.50607 30.893866,-19.44574 4.93909,-10.86004 11.13068,-30.93495 11.20642,-24.55988 0.1263,10.63052 -13.59788,45.94703 -19.88884,47.39362 -2.950848,0.67854 -13.07875,1.49763 -22.506445,1.82021 -22.479118,0.76912 -23.912261,2.91499 -15.680227,23.47826 7.72106,19.28685 7.831086,29.99516 0.431627,42.0089 -7.474317,12.13526 -7.349393,16.93066 0.519006,19.92269 13.279625,5.04974 127.729919,32.22963 135.713929,32.22963 19.54659,0 30.62858,-13.06629 30.47111,-35.92716 -0.11801,-17.13224 -5.00053,-27.17631 -34.34135,-70.64527 -37.96907,-56.25191 -50.80747,-68.40307 -66.49404,-62.93471 -4.16619,1.45234 -8.04959,2.16592 -8.62978,1.58573 -0.58019,-0.58021 -1.57901,-5.70483 -2.21959,-11.38807 -1.00999,-8.96062 0.52741,-13.97893 11.57433,-37.78006 7.00646,-15.09578 17.13293,-38.69424 22.50327,-52.44099 6.67327,-17.08197 13.96086,-30.65632 23.02118,-42.8808 7.29132,-9.83768 19.97454,-27.79563 28.18495,-39.90656 l 14.92801,-22.01986 -1.15568,-32.45033 c -0.63562,-17.84769 -1.15568,-48.61755 -1.15568,-68.37749 0,-42.63395 3.44199,-56.624034 18.0004,-73.163256 11.74628,-13.344479 22.82773,-18.934106 44.09034,-22.239731 41.98007,-6.526495 84.60989,11.341934 100.06996,41.94465 6.96306,13.783097 9.80786,28.931107 12.86902,68.524567 4.55313,58.89086 9.86849,70.84367 69.57592,156.45695 20.52031,29.42364 31.83632,60.38149 37.4484,102.44954 3.75689,28.16179 1.19737,35.6682 -18.8905,55.40065 -16.672,16.37703 -32.57974,24.59918 -42.6857,22.06277 -8.66356,-2.17443 -19.26309,-12.15817 -23.78192,-22.40035 -3.31584,-7.51554 -5.20846,-9.16824 -10.49914,-9.16824 -4.35411,0 -7.70957,1.91601 -10.31248,5.88858 -3.32924,5.08105 -3.59272,9.29273 -1.92127,30.71192 1.06541,13.65283 1.99532,41.69531 2.06651,62.31659 l 0.12933,37.49326 6.84325,7.16292 c 8.52389,8.92208 21.49748,12.75736 32.69535,9.66547 4.49643,-1.2415 17.48987,-9.19262 28.87435,-17.66911 15.86119,-11.80972 25.99578,-17.29874 43.36157,-23.48516 12.46443,-4.44035 25.09991,-9.65523 28.0789,-11.58862 2.97899,-1.93339 5.94592,-2.98569 6.59317,-2.33844 1.58543,1.58541 -12.22029,10.0739 -37.82696,23.25806 -13.7856,7.09779 -27.40709,16.5807 -39.01054,27.15805 -20.60234,18.78054 -24.46578,20.63178 -43.05737,20.63178 -19.06325,0 -30.05684,-4.97151 -38.97648,-17.62593 l -7.37891,-10.46855 -60.79349,0.71943 c -67.41489,0.79779 -64.89524,0.28387 -88.60806,18.0727 -14.11659,10.58993 -20.10149,12.06142 -33.60928,8.26334 z M 250.184,605.54636 c 5.3748,-7.08041 3.97239,-22.51627 -2.77415,-30.53407 -7.19817,-8.55456 -4.20968,-9.2019 7.08768,-1.5353 10.60381,7.19593 22.9099,9.18479 44.95234,7.26498 27.68505,-2.41124 38.8221,-6.99601 55.22189,-22.73308 20.70892,-19.872 22.39982,-17.13637 13.77665,22.2887 -3.66125,16.73925 -2.14462,26.98718 3.99392,26.98718 5.09869,0 8.75964,-29.99398 10.1665,-83.29316 1.20363,-45.60016 1.45028,-47.56607 6.616,-52.73179 2.95119,-2.95117 7.89426,-5.36578 10.98464,-5.36578 4.02109,0 6.41446,-1.92078 8.41678,-6.75479 1.53885,-3.71515 5.77403,-7.98756 9.4115,-9.49425 6.41722,-2.6581 23.66807,-2.15252 38.18742,1.11919 l 6.95364,1.56689 -7.24662,-6.83715 c -3.98565,-3.76044 -8.54251,-7.26911 -10.12636,-7.79707 -2.29299,-0.76432 -2.28912,-3.59909 0.0185,-13.91297 1.66725,-7.45004 2.46147,-21.28442 1.86946,-32.56356 -0.87303,-16.63369 -2.35109,-22.39413 -9.73713,-37.94853 -12.81295,-26.98303 -32.74837,-51.53801 -37.76735,-46.51903 -0.64247,0.64245 3.16776,7.55293 8.46715,15.35663 24.24307,35.69949 35.34164,71.42425 30.07328,96.80173 -3.36288,16.19897 -8.94447,21.98292 -20.30271,21.0388 l -8.55952,-0.71152 -1.53891,-29.49318 c -1.758,-33.69193 -3.08946,-38.72497 -18.30347,-69.18941 -6.09563,-12.20589 -12.86215,-28.37311 -15.0367,-35.92715 -4.44724,-15.44905 -9.48569,-26.20817 -21.34168,-45.5732 -8.52055,-13.91708 -8.5269,-13.98015 -3.93033,-39.03288 1.97428,-10.76042 -1.51634,-14.2095 -20.91313,-20.66434 -18.35275,-6.1074 -25.4262,-13.65574 -23.56193,-25.14382 0.69087,-4.25736 2.47735,-9.21216 3.96997,-11.01066 3.00103,-3.61601 24.92972,-3.75359 22.76373,-0.24892 -0.74838,1.21087 -14.00858,2.50758 -11.43826,3.88318 2.57032,1.37559 5.32023,5.07859 6.11091,8.22888 2.18843,8.71938 6.20907,6.85062 5.13088,-2.38479 -0.52092,-4.46192 -0.23515,-8.11258 0.63501,-8.11258 2.95112,0 3.98604,9.12273 2.02254,17.82863 -2.17093,9.62562 0.30841,14.6217 7.25614,14.6217 9.21467,0 11.80052,-17.77606 5.61553,-38.60313 -4.67127,-15.72989 -9.97136,-20.01065 -26.18609,-21.14992 -12.15342,-0.85391 -13.73861,-0.38959 -19.29977,5.65309 -7.30663,7.93931 -11.3253,19.13001 -11.3253,31.53737 0,8.40543 -0.44835,9.07583 -5.21523,7.79835 -2.86838,-0.7687 -8.08361,-1.41187 -11.58941,-1.42928 -5.88057,-0.0292 -6.37417,-0.74597 -6.37417,-9.25627 0,-11.45589 -6.1181,-27.2512 -11.71575,-30.24697 -10.89529,-5.83098 -23.7944,1.83222 -27.73837,16.47901 -2.93674,10.90623 0.39013,33.19035 5.85694,39.2311 3.14363,3.47367 3.03169,4.29582 -1.09309,8.0287 -8.97524,8.12248 -8.23001,12.23512 4.44196,24.51334 11.68518,11.32208 12.06102,11.48434 26.60102,11.48434 8.36649,0 21.47038,-2.07621 30.28275,-4.79808 8.54392,-2.63894 15.94712,-4.38535 16.45156,-3.8809 0.50444,0.50444 -6.06274,3.7836 -14.59373,7.28702 -12.18065,5.00222 -19.14405,6.35089 -32.43256,6.28151 -19.22725,-0.10039 -21.42101,2.4563 -9.22928,10.75615 12.06573,8.21407 24.29593,6.96902 51.33976,-5.22645 12.70776,-5.73059 24.50359,-10.41925 26.21296,-10.41925 5.67466,0 0.34414,4.65604 -13.1005,11.44286 -7.3036,3.68685 -18.46234,10.80035 -24.79722,15.80777 -14.04777,11.10413 -20.13368,14.47123 -26.15623,14.47123 -6.06092,0 -17.30604,-9.63522 -26.01048,-22.28668 -7.53196,-10.94733 -10.79859,-12.49882 -12.85886,-6.10736 -0.71914,2.23096 -5.90164,14.61102 -11.51666,27.51125 -7.9936,18.36492 -10.20912,26.2264 -10.20912,36.22581 0,10.45619 -1.45384,15.18516 -8.02141,26.09171 -16.10228,26.74049 -24.26466,54.64189 -24.40775,83.43282 -0.11386,22.91049 -1.71,26.16405 -9.73777,19.8494 -9.35416,-7.35797 -11.95204,-16.57067 -10.52868,-37.3371 1.31699,-19.21451 -0.67235,-23.625 -5.02466,-11.13994 -3.95014,11.33138 -3.03076,34.29523 1.79574,44.8528 4.82205,10.54787 28.30609,33.56945 61.38011,60.17138 32.0173,25.752 35.06687,33.66522 18.29997,47.48591 l -8.41677,6.93781 7.0773,9.92099 c 10.71383,15.01869 14.67001,23.91395 14.67001,32.9847 0,9.16286 1.48038,10.18444 6.04493,4.1714 z M 175.66598,347.37303 c 6.12619,-7.28056 7.00692,-13.61542 2.11918,-15.24264 -2.46553,-0.82081 -12.45403,15.4274 -12.45403,20.25886 0,4.27762 4.2506,2.2145 10.33485,-5.01622 z m 214.41804,-96.88952 c 1.31969,-2.46586 2.39942,-4.99958 2.39942,-5.63049 0,-1.79344 -20.80108,-15.38282 -23.54628,-15.38282 -4.11595,0 0.21,12.23524 6.76114,19.12252 7.14948,7.51635 11.0973,8.03523 14.38572,1.89079 z M 340.25,103.35419 c 5.05472,-1.75919 9.53653,-4.236958 9.95959,-5.506146 1.04763,-3.142874 -11.09011,-12.425187 -15.16205,-11.595157 -2.44645,0.498688 -9.44117,14.699563 -9.74773,19.790163 -0.0862,1.43328 6.51994,0.24511 14.95019,-2.68886 z"
       id="path4818" />
    <path
       style="fill:#d0cecc;fill-opacity:0.51372549;stroke:none"
       d="m 240.33713,197.59934 c 0.28346,-0.63742 1.2603,-2.65026 2.17075,-4.47299 1.5127,-3.02843 1.45956,-3.44833 -0.61666,-4.87223 -4.59457,-3.15103 -6.17959,-5.48532 -7.52077,-11.07597 -2.67063,-11.13246 1.48456,-18.40332 10.51726,-18.40332 5.44244,0 9.51464,4.35152 12.04457,12.8707 2.52255,8.49435 1.41808,11.75211 -6.16089,18.17224 -8.92817,7.56303 -11.03621,9.13515 -10.43426,7.78157 z m 13.41831,-17.56282 c 1.84478,-4.80744 -4.45526,-18.09017 -7.64516,-16.1187 -1.83029,1.13118 -1.58937,3.02347 1.04204,8.18483 1.27483,2.50051 2.31788,5.39224 2.31788,6.42606 0,3.6248 3.05974,4.70141 4.28524,1.50781 z"
       id="path4820" />
    <path
       style="fill:#d0cecc;fill-opacity:0.51372549;stroke:none"
       d="m 289.9588,192.41441 c -2.80459,-1.04636 -4.93602,-2.13688 -5.58898,-2.85952 -0.50154,-0.55506 -0.49677,-0.58049 0.14487,-0.77206 0.36492,-0.10896 2.36376,-0.27336 4.44188,-0.36534 5.12121,-0.22666 6.28646,0.37003 5.79882,2.9694 -0.19872,1.05924 -1.09531,1.8749 -2.03614,1.85233 -0.32309,-0.008 -1.56529,-0.37891 -2.76045,-0.82481 z"
       id="path4822" />
    <path
       style="fill:#d0cecc;fill-opacity:0.51372549;stroke:none"
       d="m 256.68027,195.03273 c -0.78227,-0.78227 -1.04828,-1.88 -0.72703,-3.00015 0.6199,-2.16145 4.23558,-3.61047 8.314,-3.33191 1.24733,0.0852 2.35557,0.24294 2.46275,0.35056 0.33386,0.33522 -1.098,1.27777 -2.21612,1.45879 -1.82335,0.29521 -2.226,0.59713 -3.17771,2.38273 -1.11943,2.10026 -1.45326,2.3974 -2.91348,2.59326 -0.8982,0.12047 -1.26375,0.0254 -1.74241,-0.45328 z"
       id="path4824" />
    <path
       style="fill:#d0cecc;fill-opacity:0.51372549;stroke:none"
       d="m 254.81014,247.28611 c -1.88247,-0.20448 -3.48402,-0.43315 -3.55901,-0.50814 -0.30658,-0.30657 4.03357,-0.56657 13.35585,-0.80007 10.60642,-0.26568 13.51627,-0.57544 19.21951,-2.04595 5.47574,-1.41186 15.5002,-5.3741 22.59699,-8.93161 3.36983,-1.68924 4.3965,-2.41937 3.8644,-2.74823 -0.57874,-0.35768 -6.11638,0.9281 -14.82411,3.44201 -5.35441,1.54581 -9.67083,2.5061 -5.7947,1.28916 1.0358,-0.32519 3.7738,-1.18335 6.08444,-1.90702 7.61975,-2.38642 25.24328,-8.909 30.00748,-11.10595 2.04212,-0.9417 2.55514,-1.34247 4.05629,-3.1688 1.86098,-2.26408 3.86715,-3.78992 4.983,-3.78992 1.43984,0 3.0992,1.54889 3.25919,3.04222 0.16301,1.52145 -0.0609,2.04404 -1.44922,3.38219 -2.3523,2.26732 -7.17347,4.39009 -21.29963,9.37826 -6.69197,2.36305 -13.66801,5.19416 -20.15605,8.18 -9.32068,4.28944 -13.83544,5.73609 -20.03327,6.41917 -3.75465,0.41381 -16.03849,0.33681 -20.31116,-0.12732 z"
       id="path4826" />
    <path
       style="fill:#d0cecc;fill-opacity:0.51372549;stroke:none"
       d="m 537.65893,570.76584 c -1.08296,-1.16452 -0.86893,-1.9514 0.98786,-3.63177 3.33172,-3.01516 5.60988,-7.81688 5.60988,-11.82401 0,-5.55396 -6.12298,-9.89587 -19.9665,-14.15857 -9.89701,-3.04749 -12.61913,-4.4144 -16.14323,-8.10629 -8.26164,-8.655 -12.83547,-29.77905 -8.62441,-39.83152 2.51726,-6.00909 3.71088,-4.48403 5.24911,6.70669 0.68865,5.01001 2.10082,10.89767 3.13814,13.08367 3.21601,6.77724 11.73443,15.14166 25.20547,24.7498 7.11501,5.07473 13.83632,10.75027 14.93625,12.61231 4.0605,6.87388 1.88909,14.14161 -5.87307,19.65723 -2.53602,1.80204 -3.40184,1.94428 -4.5195,0.74246 z"
       id="path4828" />
    <path
       style="fill:#d0cecc;fill-opacity:0.51372549;stroke:none"
       id="path4842"
       d="m 469.77972,490.50627 c 3.49062,-0.26682 6.99262,-0.38071 10.49258,-0.47125 3.62275,-0.10161 7.24671,-0.0789 10.8704,-0.0618 3.16205,-0.15552 6.29436,0.12413 9.43145,0.44447 0.83804,-0.01 1.61799,0.25602 2.41019,0.47245 0,0 -9.48398,6.18512 -9.48398,6.18512 l 0,0 c -0.74731,-0.1767 -1.49763,-0.32371 -2.26964,-0.36788 -3.05744,-0.35305 -6.118,-0.56682 -9.2027,-0.44779 -3.63092,0.0229 -7.26222,0.0434 -10.89249,0.11339 -3.53022,0.0981 -7.07126,0.20076 -10.57417,0.6578 0,0 9.21836,-6.52449 9.21836,-6.52449 z" />
  </g>
</svg>
