<?xml version="1.0" encoding="UTF-8" standalone="no"?>
<svg
   xmlns:dc="http://purl.org/dc/elements/1.1/"
   xmlns:cc="http://creativecommons.org/ns#"
   xmlns:rdf="http://www.w3.org/1999/02/22-rdf-syntax-ns#"
   xmlns:svg="http://www.w3.org/2000/svg"
   xmlns="http://www.w3.org/2000/svg"
   x="0"
   y="0"
   version="1.0"
   _SVGFile__filename="oldscale/apps/kteatime.svg"
   viewBox="0 0 60 60"
   id="svg1">
  <defs
     id="defs17" />
  <g
     id="g1736">
    <path
       d="m 25.5,5.3438 c -11.491,0 -20.812,3.792 -20.812,8.4372 -5e-4,0.053 0.0283,0.104 0.0308,0.157 l -0.0313,0 0,32.281 c 0,4.645 9.3215,8.437 20.812,8.437 11.491,0 20.844,-3.792 20.844,-8.437 l 0,-32.281 -0.032,0 c 0.003,-0.053 0.032,-0.104 0.032,-0.157 0,-4.6452 -9.353,-8.4373 -20.844,-8.4372 z"
       style="fill:none;stroke:#ffffff;stroke-width:8.125;stroke-linejoin:round"
       id="path1100" />
    <path
       d="m 41.226,26.227 c 20.397,2.448 14.414,16.046 0,18.765"
       style="fill:none;stroke:#ffffff;stroke-width:10;stroke-linecap:round;stroke-linejoin:round"
       id="path1103" />
  </g>
  <path
     id="rect1577"
     style="fill:#ffffff;fill-rule:evenodd;stroke:#000000;stroke-width:3.12215233"
     d="m 4.68576,13.946038 0,32.287104 c 0,4.644965 9.335458,8.415184 20.827265,8.415184 11.491807,0 20.827265,-3.770219 20.827265,-8.415184 l 0,-32.287104" />
  <path
     id="path584"
     style="fill:#ffffff;fill-rule:evenodd;stroke:#000000;stroke-width:3.12498736;stroke-linejoin:round"
     d="m 46.332294,13.767647 c 0,4.646066 -9.326594,8.415841 -20.81807,8.415841 -11.491477,0 -20.8180708,-3.769775 -20.8180708,-8.415841 0,-4.6448361 9.3265938,-8.4146114 20.8180708,-8.4146114 11.491476,0 20.81807,3.7697753 20.81807,8.4146114 z" />
  <path
     id="path586"
     style="fill:#000000;fill-rule:evenodd"
     d="m 41.137349,13.767796 c 0,2.473116 -6.999899,4.479315 -15.623355,4.479315 -8.624425,0 -15.6233552,-2.006199 -15.6233552,-4.479315 0,-2.472148 6.9989302,-4.4785406 15.6233552,-4.4785406 8.623456,0 15.623355,2.0063926 15.623355,4.4785406 z" />
  <path
     id="path587"
     style="fill:none;stroke:#000000;stroke-width:4.99999666;stroke-linecap:round;stroke-linejoin:round"
     d="m 41.22647,26.227344 c 20.396189,2.446961 14.413436,16.044743 0,18.764881" />
  <metadata
     id="metadata15">
    <rdf:RDF>
      <cc:Work>
        <dc:format>image/svg+xml</dc:format>
        <dc:type
           rdf:resource="http://purl.org/dc/dcmitype/StillImage" />
        <cc:license
           rdf:resource="http://creativecommons.org/licenses/publicdomain/" />
        <dc:publisher>
          <cc:Agent
             rdf:about="http://openclipart.org/">
            <dc:title>Openclipart</dc:title>
          </cc:Agent>
        </dc:publisher>
        <dc:title></dc:title>
      </cc:Work>
      <cc:License
         rdf:about="http://creativecommons.org/licenses/publicdomain/">
        <cc:permits
           rdf:resource="http://creativecommons.org/ns#Reproduction" />
        <cc:permits
           rdf:resource="http://creativecommons.org/ns#Distribution" />
        <cc:permits
           rdf:resource="http://creativecommons.org/ns#DerivativeWorks" />
      </cc:License>
    </rdf:RDF>
  </metadata>
</svg>
